<svg width="304" height="385" viewBox="0 0 304 385" fill="none" xmlns="http://www.w3.org/2000/svg">
<g clip-path="url(#clip0)">
<rect width="304" height="385" fill="white"/>
<path d="M195 -246L587.444 146.444" stroke="black"/>
<path d="M187.929 -238.929L580.373 153.515" stroke="black"/>
<path d="M180.858 -231.858L573.302 160.586" stroke="black"/>
<path d="M173.787 -224.787L566.231 167.657" stroke="black"/>
<path d="M166.716 -217.716L559.16 174.729" stroke="black"/>
<path d="M159.645 -210.645L552.089 181.8" stroke="black"/>
<path d="M152.574 -203.574L545.018 188.871" stroke="black"/>
<path d="M145.503 -196.503L537.947 195.942" stroke="black"/>
<path d="M138.432 -189.431L530.876 203.013" stroke="black"/>
<path d="M131.36 -182.36L523.805 210.084" stroke="black"/>
<path d="M124.289 -175.289L516.734 217.155" stroke="black"/>
<path d="M117.218 -168.218L509.663 224.226" stroke="black"/>
<path d="M110.147 -161.147L502.591 231.297" stroke="black"/>
<path d="M103.076 -154.076L495.52 238.368" stroke="black"/>
<path d="M96.005 -147.005L488.449 245.439" stroke="black"/>
<path d="M88.934 -139.934L481.378 252.51" stroke="black"/>
<path d="M81.8629 -132.863L474.307 259.581" stroke="black"/>
<path d="M74.7919 -125.792L467.236 266.652" stroke="black"/>
<path d="M67.7208 -118.721L460.165 273.723" stroke="black"/>
<path d="M60.6497 -111.65L453.094 280.795" stroke="black"/>
<path d="M53.5786 -104.579L446.023 287.866" stroke="black"/>
<path d="M46.5076 -97.5076L438.952 294.937" stroke="black"/>
<path d="M39.4365 -90.4365L431.881 302.008" stroke="black"/>
<path d="M32.3655 -83.3654L424.81 309.079" stroke="black"/>
<path d="M25.2944 -76.2944L417.739 316.15" stroke="black"/>
<path d="M18.2233 -69.2233L410.668 323.221" stroke="black"/>
<path d="M11.1522 -62.1523L403.596 330.292" stroke="black"/>
<path d="M4.08118 -55.0812L396.525 337.363" stroke="black"/>
<path d="M-2.98987 -48.0101L389.454 344.434" stroke="black"/>
<path d="M-10.0609 -40.939L382.383 351.505" stroke="black"/>
<path d="M-17.1321 -33.868L375.312 358.576" stroke="black"/>
<path d="M-24.2031 -26.7969L368.241 365.647" stroke="black"/>
<path d="M-31.2742 -19.7258L361.17 372.718" stroke="black"/>
<path d="M-38.3452 -12.6548L354.099 379.789" stroke="black"/>
<path d="M-45.4163 -5.58368L347.028 386.861" stroke="black"/>
<path d="M-52.4874 1.48737L339.957 393.932" stroke="black"/>
<path d="M-59.5585 8.55841L332.886 401.003" stroke="black"/>
<path d="M-66.6295 15.6295L325.815 408.074" stroke="black"/>
<path d="M-73.7006 22.7006L318.744 415.145" stroke="black"/>
<path d="M-80.7716 29.7717L311.673 422.216" stroke="black"/>
<path d="M-87.8427 36.8427L304.602 429.287" stroke="black"/>
<path d="M-94.9138 43.9138L297.53 436.358" stroke="black"/>
<path d="M-101.985 50.9849L290.459 443.429" stroke="black"/>
<path d="M-109.056 58.0559L283.388 450.5" stroke="black"/>
<path d="M-116.127 65.127L276.317 457.571" stroke="black"/>
<path d="M-123.198 72.1981L269.246 464.642" stroke="black"/>
<path d="M-130.269 79.2691L262.175 471.713" stroke="black"/>
<path d="M-137.34 86.3402L255.104 478.784" stroke="black"/>
<path d="M-144.411 93.4113L248.033 485.856" stroke="black"/>
<path d="M-151.482 100.482L240.962 492.927" stroke="black"/>
<path d="M-158.553 107.553L233.891 499.998" stroke="black"/>
<path d="M-165.625 114.624L226.82 507.069" stroke="black"/>
<path d="M-172.696 121.695L219.749 514.14" stroke="black"/>
<path d="M-179.767 128.767L212.678 521.211" stroke="black"/>
<path d="M-186.838 135.838L205.607 528.282" stroke="black"/>
<path d="M-193.909 142.909L198.536 535.353" stroke="black"/>
<path d="M-200.98 149.98L191.465 542.424" stroke="black"/>
<path d="M-208.051 157.051L184.393 549.495" stroke="black"/>
<path d="M-215.122 164.122L177.322 556.566" stroke="black"/>
<path d="M-222.193 171.193L170.251 563.637" stroke="black"/>
<path d="M-229.264 178.264L163.18 570.708" stroke="black"/>
<path d="M-236.335 185.335L156.109 577.779" stroke="black"/>
<path d="M-243.406 192.406L149.038 584.85" stroke="black"/>
<path d="M-250.477 199.477L141.967 591.922" stroke="black"/>
<mask id="mask0" mask-type="alpha" maskUnits="userSpaceOnUse" x="56" y="92" width="200" height="200">
<circle cx="156" cy="192" r="100" fill="#C90000"/>
</mask>
<g mask="url(#mask0)">
<path d="M109.203 -73L436.594 254.39" stroke="black" stroke-width="6"/>
<path d="M102.132 -65.9287L429.523 261.462" stroke="black" stroke-width="6"/>
<path d="M95.061 -58.8577L422.451 268.533" stroke="black" stroke-width="6"/>
<path d="M87.99 -51.7866L415.38 275.604" stroke="black" stroke-width="6"/>
<path d="M80.9189 -44.7156L408.309 282.675" stroke="black" stroke-width="6"/>
<path d="M73.8479 -37.6445L401.238 289.746" stroke="black" stroke-width="6"/>
<path d="M66.7769 -30.5735L394.167 296.817" stroke="black" stroke-width="6"/>
<path d="M59.7058 -23.5024L387.096 303.888" stroke="black" stroke-width="6"/>
<path d="M52.6348 -16.4314L380.025 310.959" stroke="black" stroke-width="6"/>
<path d="M45.5637 -9.36035L372.954 318.03" stroke="black" stroke-width="6"/>
<path d="M38.4924 -2.28931L365.883 325.101" stroke="black" stroke-width="6"/>
<path d="M31.4214 4.78174L358.812 332.172" stroke="black" stroke-width="6"/>
<path d="M24.3503 11.853L351.741 339.243" stroke="black" stroke-width="6"/>
<path d="M17.2793 18.9241L344.67 346.315" stroke="black" stroke-width="6"/>
<path d="M10.2083 25.9951L337.599 353.386" stroke="black" stroke-width="6"/>
<path d="M3.13721 33.0662L330.528 360.457" stroke="black" stroke-width="6"/>
<path d="M-3.93384 40.1372L323.457 367.528" stroke="black" stroke-width="6"/>
<path d="M-11.0049 47.2083L316.386 374.599" stroke="black" stroke-width="6"/>
<path d="M-18.0759 54.2793L309.315 381.67" stroke="black" stroke-width="6"/>
<path d="M-25.147 61.3503L302.243 388.741" stroke="black" stroke-width="6"/>
<path d="M-32.2183 68.4214L295.172 395.812" stroke="black" stroke-width="6"/>
<path d="M-39.2893 75.4924L288.101 402.883" stroke="black" stroke-width="6"/>
<path d="M-46.3604 82.5635L281.03 409.954" stroke="black" stroke-width="6"/>
<path d="M-53.4314 89.6348L273.959 417.025" stroke="black" stroke-width="6"/>
<path d="M-60.5024 96.7058L266.888 424.096" stroke="black" stroke-width="6"/>
<path d="M-67.5735 103.777L259.817 431.167" stroke="black" stroke-width="6"/>
<path d="M-74.6445 110.848L252.746 438.238" stroke="black" stroke-width="6"/>
<path d="M-81.7156 117.919L245.675 445.309" stroke="black" stroke-width="6"/>
<path d="M-88.7866 124.99L238.604 452.38" stroke="black" stroke-width="6"/>
<path d="M-95.8577 132.061L231.533 459.451" stroke="black" stroke-width="6"/>
<path d="M-102.929 139.132L224.462 466.523" stroke="black" stroke-width="6"/>
<path d="M-110 146.203L217.39 473.594" stroke="black" stroke-width="6"/>
</g>
</g>
<defs>
<clipPath id="clip0">
<rect width="304" height="385" fill="white"/>
</clipPath>
</defs>
</svg>
