<svg width="306" height="385" viewBox="0 0 306 385" fill="none" xmlns="http://www.w3.org/2000/svg">
<g clip-path="url(#clip0)">
<rect width="306" height="385" fill="black"/>
<path d="M195.639 -246L589.37 146.444" stroke="#181818" stroke-width="2"/>
<path d="M188.545 -238.929L582.276 153.515" stroke="#181818" stroke-width="2"/>
<path d="M181.451 -231.858L575.182 160.586" stroke="#181818" stroke-width="2"/>
<path d="M174.357 -224.787L568.088 167.657" stroke="#181818" stroke-width="2"/>
<path d="M167.262 -217.716L560.993 174.729" stroke="#181818" stroke-width="2"/>
<path d="M160.168 -210.645L553.899 181.8" stroke="#181818" stroke-width="2"/>
<path d="M153.074 -203.574L546.805 188.871" stroke="#181818" stroke-width="2"/>
<path d="M145.98 -196.503L539.711 195.942" stroke="#181818" stroke-width="2"/>
<path d="M138.885 -189.431L532.616 203.013" stroke="#181818" stroke-width="2"/>
<path d="M131.791 -182.36L525.522 210.084" stroke="#181818" stroke-width="2"/>
<path d="M124.697 -175.289L518.428 217.155" stroke="#181818" stroke-width="2"/>
<path d="M117.603 -168.218L511.334 224.226" stroke="#181818" stroke-width="2"/>
<path d="M110.508 -161.147L504.239 231.297" stroke="#181818" stroke-width="2"/>
<path d="M103.414 -154.076L497.145 238.368" stroke="#181818" stroke-width="2"/>
<path d="M96.3198 -147.005L490.051 245.439" stroke="#181818" stroke-width="2"/>
<path d="M89.2256 -139.934L482.957 252.51" stroke="#181818" stroke-width="2"/>
<path d="M82.1313 -132.863L475.862 259.581" stroke="#181818" stroke-width="2"/>
<path d="M75.0371 -125.792L468.768 266.652" stroke="#181818" stroke-width="2"/>
<path d="M67.9428 -118.721L461.674 273.724" stroke="#181818" stroke-width="2"/>
<path d="M60.8486 -111.65L454.579 280.795" stroke="#181818" stroke-width="2"/>
<path d="M53.7543 -104.579L447.485 287.866" stroke="#181818" stroke-width="2"/>
<path d="M46.6601 -97.5076L440.391 294.937" stroke="#181818" stroke-width="2"/>
<path d="M39.5658 -90.4365L433.297 302.008" stroke="#181818" stroke-width="2"/>
<path d="M32.4716 -83.3654L426.203 309.079" stroke="#181818" stroke-width="2"/>
<path d="M25.3773 -76.2944L419.108 316.15" stroke="#181818" stroke-width="2"/>
<path d="M18.2831 -69.2233L412.014 323.221" stroke="#181818" stroke-width="2"/>
<path d="M11.1888 -62.1522L404.92 330.292" stroke="#181818" stroke-width="2"/>
<path d="M4.09456 -55.0812L397.826 337.363" stroke="#181818" stroke-width="2"/>
<path d="M-2.99971 -48.0101L390.731 344.434" stroke="#181818" stroke-width="2"/>
<path d="M-10.0939 -40.939L383.637 351.505" stroke="#181818" stroke-width="2"/>
<path d="M-17.1882 -33.868L376.543 358.576" stroke="#181818" stroke-width="2"/>
<path d="M-24.2825 -26.7969L369.448 365.647" stroke="#181818" stroke-width="2"/>
<path d="M-31.3767 -19.7258L362.354 372.718" stroke="#181818" stroke-width="2"/>
<path d="M-38.471 -12.6548L355.26 379.79" stroke="#181818" stroke-width="2"/>
<path d="M-45.5652 -5.5837L348.166 386.861" stroke="#181818" stroke-width="2"/>
<path d="M-52.6595 1.48737L341.071 393.932" stroke="#181818" stroke-width="2"/>
<path d="M-59.7537 8.55844L333.977 401.003" stroke="#181818" stroke-width="2"/>
<path d="M-66.8479 15.6295L326.883 408.074" stroke="#181818" stroke-width="2"/>
<path d="M-73.9422 22.7006L319.789 415.145" stroke="#181818" stroke-width="2"/>
<path d="M-81.0365 29.7716L312.694 422.216" stroke="#181818" stroke-width="2"/>
<path d="M-88.1307 36.8427L305.6 429.287" stroke="#181818" stroke-width="2"/>
<path d="M-95.225 43.9138L298.506 436.358" stroke="#181818" stroke-width="2"/>
<path d="M-102.319 50.9848L291.412 443.429" stroke="#181818" stroke-width="2"/>
<path d="M-109.413 58.0559L284.317 450.5" stroke="#181818" stroke-width="2"/>
<path d="M-116.508 65.127L277.223 457.571" stroke="#181818" stroke-width="2"/>
<path d="M-123.602 72.1981L270.129 464.642" stroke="#181818" stroke-width="2"/>
<path d="M-130.696 79.2691L263.035 471.713" stroke="#181818" stroke-width="2"/>
<path d="M-137.79 86.3402L255.94 478.784" stroke="#181818" stroke-width="2"/>
<path d="M-144.885 93.4113L248.846 485.856" stroke="#181818" stroke-width="2"/>
<path d="M-151.979 100.482L241.752 492.927" stroke="#181818" stroke-width="2"/>
<path d="M-159.073 107.553L234.658 499.998" stroke="#181818" stroke-width="2"/>
<path d="M-166.167 114.624L227.563 507.069" stroke="#181818" stroke-width="2"/>
<path d="M-173.262 121.696L220.469 514.14" stroke="#181818" stroke-width="2"/>
<path d="M-180.356 128.767L213.375 521.211" stroke="#181818" stroke-width="2"/>
<path d="M-187.45 135.838L206.281 528.282" stroke="#181818" stroke-width="2"/>
<path d="M-194.544 142.909L199.186 535.353" stroke="#181818" stroke-width="2"/>
<path d="M-201.639 149.98L192.092 542.424" stroke="#181818" stroke-width="2"/>
<path d="M-208.733 157.051L184.998 549.495" stroke="#181818" stroke-width="2"/>
<path d="M-215.827 164.122L177.904 556.566" stroke="#181818" stroke-width="2"/>
<path d="M-222.921 171.193L170.809 563.637" stroke="#181818" stroke-width="2"/>
<path d="M-230.016 178.264L163.715 570.708" stroke="#181818" stroke-width="2"/>
<path d="M-237.11 185.335L156.621 577.779" stroke="#181818" stroke-width="2"/>
<path d="M-244.204 192.406L149.527 584.851" stroke="#181818" stroke-width="2"/>
<path d="M-251.298 199.477L142.432 591.922" stroke="#181818" stroke-width="2"/>
</g>
<defs>
<clipPath id="clip0">
<rect width="306" height="385" fill="white"/>
</clipPath>
</defs>
</svg>
