<svg width="306" height="385" viewBox="0 0 306 385" fill="none" xmlns="http://www.w3.org/2000/svg">
<g clip-path="url(#clip0)">
<rect width="306" height="385" fill="black"/>
<path d="M195.639 -246L589.37 146.444" stroke="#181818" stroke-width="2"/>
<path d="M188.545 -238.929L582.276 153.515" stroke="#181818" stroke-width="2"/>
<path d="M181.451 -231.858L575.182 160.586" stroke="#181818" stroke-width="2"/>
<path d="M174.357 -224.787L568.088 167.657" stroke="#181818" stroke-width="2"/>
<path d="M167.262 -217.716L560.993 174.729" stroke="#181818" stroke-width="2"/>
<path d="M160.168 -210.645L553.899 181.8" stroke="#181818" stroke-width="2"/>
<path d="M153.074 -203.574L546.805 188.871" stroke="#181818" stroke-width="2"/>
<path d="M145.98 -196.503L539.711 195.942" stroke="#181818" stroke-width="2"/>
<path d="M138.885 -189.431L532.616 203.013" stroke="#181818" stroke-width="2"/>
<path d="M131.791 -182.36L525.522 210.084" stroke="#181818" stroke-width="2"/>
<path d="M124.697 -175.289L518.428 217.155" stroke="#181818" stroke-width="2"/>
<path d="M117.603 -168.218L511.334 224.226" stroke="#181818" stroke-width="2"/>
<path d="M110.508 -161.147L504.239 231.297" stroke="#181818" stroke-width="2"/>
<path d="M103.414 -154.076L497.145 238.368" stroke="#181818" stroke-width="2"/>
<path d="M96.3198 -147.005L490.051 245.439" stroke="#181818" stroke-width="2"/>
<path d="M89.2256 -139.934L482.957 252.51" stroke="#181818" stroke-width="2"/>
<path d="M82.1313 -132.863L475.862 259.581" stroke="#181818" stroke-width="2"/>
<path d="M75.037 -125.792L468.768 266.652" stroke="#181818" stroke-width="2"/>
<path d="M67.9428 -118.721L461.674 273.724" stroke="#181818" stroke-width="2"/>
<path d="M60.8485 -111.65L454.579 280.795" stroke="#181818" stroke-width="2"/>
<path d="M53.7543 -104.579L447.485 287.866" stroke="#181818" stroke-width="2"/>
<path d="M46.66 -97.5076L440.391 294.937" stroke="#181818" stroke-width="2"/>
<path d="M39.5658 -90.4365L433.297 302.008" stroke="#181818" stroke-width="2"/>
<path d="M32.4716 -83.3654L426.203 309.079" stroke="#181818" stroke-width="2"/>
<path d="M25.3773 -76.2944L419.108 316.15" stroke="#181818" stroke-width="2"/>
<path d="M18.2831 -69.2233L412.014 323.221" stroke="#181818" stroke-width="2"/>
<path d="M11.1888 -62.1522L404.92 330.292" stroke="#181818" stroke-width="2"/>
<path d="M4.09454 -55.0812L397.826 337.363" stroke="#181818" stroke-width="2"/>
<path d="M-2.99969 -48.0101L390.731 344.434" stroke="#181818" stroke-width="2"/>
<path d="M-10.0939 -40.939L383.637 351.505" stroke="#181818" stroke-width="2"/>
<path d="M-17.1882 -33.868L376.543 358.576" stroke="#181818" stroke-width="2"/>
<path d="M-24.2825 -26.7969L369.448 365.647" stroke="#181818" stroke-width="2"/>
<path d="M-31.3767 -19.7258L362.354 372.718" stroke="#181818" stroke-width="2"/>
<path d="M-38.4709 -12.6548L355.26 379.79" stroke="#181818" stroke-width="2"/>
<path d="M-45.5652 -5.5837L348.166 386.861" stroke="#181818" stroke-width="2"/>
<path d="M-52.6595 1.48737L341.071 393.932" stroke="#181818" stroke-width="2"/>
<path d="M-59.7537 8.55844L333.977 401.003" stroke="#181818" stroke-width="2"/>
<path d="M-66.848 15.6295L326.883 408.074" stroke="#181818" stroke-width="2"/>
<path d="M-73.9422 22.7006L319.789 415.145" stroke="#181818" stroke-width="2"/>
<path d="M-81.0365 29.7716L312.694 422.216" stroke="#181818" stroke-width="2"/>
<path d="M-88.1307 36.8427L305.6 429.287" stroke="#181818" stroke-width="2"/>
<path d="M-95.225 43.9138L298.506 436.358" stroke="#181818" stroke-width="2"/>
<path d="M-102.319 50.9848L291.412 443.429" stroke="#181818" stroke-width="2"/>
<path d="M-109.414 58.0559L284.317 450.5" stroke="#181818" stroke-width="2"/>
<path d="M-116.508 65.127L277.223 457.571" stroke="#181818" stroke-width="2"/>
<path d="M-123.602 72.1981L270.129 464.642" stroke="#181818" stroke-width="2"/>
<path d="M-130.696 79.2691L263.035 471.713" stroke="#181818" stroke-width="2"/>
<path d="M-137.79 86.3402L255.94 478.784" stroke="#181818" stroke-width="2"/>
<path d="M-144.885 93.4113L248.846 485.856" stroke="#181818" stroke-width="2"/>
<path d="M-151.979 100.482L241.752 492.927" stroke="#181818" stroke-width="2"/>
<path d="M-159.073 107.553L234.658 499.998" stroke="#181818" stroke-width="2"/>
<path d="M-166.167 114.624L227.563 507.069" stroke="#181818" stroke-width="2"/>
<path d="M-173.262 121.696L220.469 514.14" stroke="#181818" stroke-width="2"/>
<path d="M-180.356 128.767L213.375 521.211" stroke="#181818" stroke-width="2"/>
<path d="M-187.45 135.838L206.281 528.282" stroke="#181818" stroke-width="2"/>
<path d="M-194.544 142.909L199.186 535.353" stroke="#181818" stroke-width="2"/>
<path d="M-201.639 149.98L192.092 542.424" stroke="#181818" stroke-width="2"/>
<path d="M-208.733 157.051L184.998 549.495" stroke="#181818" stroke-width="2"/>
<path d="M-215.827 164.122L177.904 556.566" stroke="#181818" stroke-width="2"/>
<path d="M-222.922 171.193L170.809 563.637" stroke="#181818" stroke-width="2"/>
<path d="M-230.016 178.264L163.715 570.708" stroke="#181818" stroke-width="2"/>
<path d="M-237.11 185.335L156.621 577.779" stroke="#181818" stroke-width="2"/>
<path d="M-244.204 192.406L149.527 584.851" stroke="#181818" stroke-width="2"/>
<path d="M-251.299 199.477L142.432 591.922" stroke="#181818" stroke-width="2"/>
<mask id="mask0" mask-type="alpha" maskUnits="userSpaceOnUse" x="148" y="95" width="99" height="254">
<path fill-rule="evenodd" clip-rule="evenodd" d="M246.942 95H177.535L148 224.953H180.688L158.337 349L245.465 185.081H205.996L246.942 95Z" fill="#181818"/>
</mask>
<g mask="url(#mask0)">
<path d="M192.639 -246L586.37 146.444" stroke="#181818" stroke-width="6"/>
<path d="M185.545 -238.929L579.276 153.515" stroke="#181818" stroke-width="6"/>
<path d="M178.451 -231.858L572.182 160.586" stroke="#181818" stroke-width="6"/>
<path d="M171.357 -224.787L565.088 167.657" stroke="#181818" stroke-width="6"/>
<path d="M164.262 -217.716L557.993 174.729" stroke="#181818" stroke-width="6"/>
<path d="M157.168 -210.645L550.899 181.8" stroke="#181818" stroke-width="6"/>
<path d="M150.074 -203.574L543.805 188.871" stroke="#181818" stroke-width="6"/>
<path d="M142.98 -196.503L536.711 195.942" stroke="#181818" stroke-width="6"/>
<path d="M135.885 -189.431L529.616 203.013" stroke="#181818" stroke-width="6"/>
<path d="M128.791 -182.36L522.522 210.084" stroke="#181818" stroke-width="6"/>
<path d="M121.697 -175.289L515.428 217.155" stroke="#181818" stroke-width="6"/>
<path d="M114.603 -168.218L508.334 224.226" stroke="#181818" stroke-width="6"/>
<path d="M107.508 -161.147L501.239 231.297" stroke="#181818" stroke-width="6"/>
<path d="M100.414 -154.076L494.145 238.368" stroke="#181818" stroke-width="6"/>
<path d="M93.3199 -147.005L487.051 245.439" stroke="#181818" stroke-width="6"/>
<path d="M86.2256 -139.934L479.957 252.51" stroke="#181818" stroke-width="6"/>
<path d="M79.1314 -132.863L472.862 259.581" stroke="#181818" stroke-width="6"/>
<path d="M72.0371 -125.792L465.768 266.652" stroke="#181818" stroke-width="6"/>
<path d="M64.9429 -118.721L458.674 273.724" stroke="#181818" stroke-width="6"/>
<path d="M57.8486 -111.65L451.58 280.795" stroke="#181818" stroke-width="6"/>
<path d="M50.7544 -104.579L444.485 287.866" stroke="#181818" stroke-width="6"/>
<path d="M43.6601 -97.5076L437.391 294.937" stroke="#181818" stroke-width="6"/>
<path d="M36.5659 -90.4365L430.297 302.008" stroke="#181818" stroke-width="6"/>
<path d="M29.4716 -83.3654L423.203 309.079" stroke="#181818" stroke-width="6"/>
<path d="M22.3773 -76.2944L416.108 316.15" stroke="#181818" stroke-width="6"/>
<path d="M15.2831 -69.2233L409.014 323.221" stroke="#181818" stroke-width="6"/>
<path d="M8.18884 -62.1522L401.92 330.292" stroke="#181818" stroke-width="6"/>
<path d="M1.0946 -55.0812L394.826 337.363" stroke="#181818" stroke-width="6"/>
<path d="M-5.99963 -48.0101L387.731 344.434" stroke="#181818" stroke-width="6"/>
<path d="M-13.0939 -40.939L380.637 351.505" stroke="#181818" stroke-width="6"/>
<path d="M-20.1882 -33.868L373.543 358.576" stroke="#181818" stroke-width="6"/>
<path d="M-27.2824 -26.7969L366.449 365.647" stroke="#181818" stroke-width="6"/>
<path d="M-34.3766 -19.7258L359.354 372.718" stroke="#181818" stroke-width="6"/>
<path d="M-41.4709 -12.6548L352.26 379.79" stroke="#181818" stroke-width="6"/>
<path d="M-48.5652 -5.5837L345.166 386.861" stroke="#181818" stroke-width="6"/>
<path d="M-55.6594 1.48737L338.072 393.932" stroke="#181818" stroke-width="6"/>
<path d="M-62.7537 8.55844L330.977 401.003" stroke="#181818" stroke-width="6"/>
<path d="M-69.8479 15.6295L323.883 408.074" stroke="#181818" stroke-width="6"/>
<path d="M-76.9421 22.7006L316.789 415.145" stroke="#181818" stroke-width="6"/>
<path d="M-84.0364 29.7716L309.694 422.216" stroke="#181818" stroke-width="6"/>
<path d="M-91.1307 36.8427L302.6 429.287" stroke="#181818" stroke-width="6"/>
<path d="M-98.2249 43.9138L295.506 436.358" stroke="#181818" stroke-width="6"/>
<path d="M-105.319 50.9848L288.412 443.429" stroke="#181818" stroke-width="6"/>
<path d="M-112.413 58.0559L281.318 450.5" stroke="#181818" stroke-width="6"/>
<path d="M-119.508 65.127L274.223 457.571" stroke="#181818" stroke-width="6"/>
<path d="M-126.602 72.1981L267.129 464.642" stroke="#181818" stroke-width="6"/>
<path d="M-133.696 79.2691L260.035 471.713" stroke="#181818" stroke-width="6"/>
<path d="M-140.79 86.3402L252.941 478.784" stroke="#181818" stroke-width="6"/>
<path d="M-147.885 93.4113L245.846 485.856" stroke="#181818" stroke-width="6"/>
<path d="M-154.979 100.482L238.752 492.927" stroke="#181818" stroke-width="6"/>
<path d="M-162.073 107.553L231.658 499.998" stroke="#181818" stroke-width="6"/>
<path d="M-169.167 114.624L224.564 507.069" stroke="#181818" stroke-width="6"/>
<path d="M-176.262 121.696L217.469 514.14" stroke="#181818" stroke-width="6"/>
<path d="M-183.356 128.767L210.375 521.211" stroke="#181818" stroke-width="6"/>
<path d="M-190.45 135.838L203.281 528.282" stroke="#181818" stroke-width="6"/>
<path d="M-197.544 142.909L196.187 535.353" stroke="#181818" stroke-width="6"/>
<path d="M-204.639 149.98L189.092 542.424" stroke="#181818" stroke-width="6"/>
<path d="M-211.733 157.051L181.998 549.495" stroke="#181818" stroke-width="6"/>
<path d="M-218.827 164.122L174.904 556.566" stroke="#181818" stroke-width="6"/>
<path d="M-225.921 171.193L167.809 563.637" stroke="#181818" stroke-width="6"/>
<path d="M-233.016 178.264L160.715 570.708" stroke="#181818" stroke-width="6"/>
<path d="M-240.11 185.335L153.621 577.779" stroke="#181818" stroke-width="6"/>
<path d="M-247.204 192.406L146.527 584.851" stroke="#181818" stroke-width="6"/>
</g>
<mask id="mask1" mask-type="alpha" maskUnits="userSpaceOnUse" x="59" y="33" width="76" height="196">
<path fill-rule="evenodd" clip-rule="evenodd" d="M135 33H81.6866L59 132.821H84.1085L66.9403 228.104L133.866 102.194H103.548L135 33Z" fill="#181818"/>
</mask>
<g mask="url(#mask1)">
<path d="M133.98 -176.503L527.711 215.942" stroke="#181818" stroke-width="4"/>
<path d="M126.885 -169.431L520.616 223.013" stroke="#181818" stroke-width="4"/>
<path d="M119.791 -162.36L513.522 230.084" stroke="#181818" stroke-width="4"/>
<path d="M112.697 -155.289L506.428 237.155" stroke="#181818" stroke-width="4"/>
<path d="M105.603 -148.218L499.334 244.226" stroke="#181818" stroke-width="4"/>
<path d="M98.5084 -141.147L492.239 251.297" stroke="#181818" stroke-width="4"/>
<path d="M91.4141 -134.076L485.145 258.368" stroke="#181818" stroke-width="4"/>
<path d="M84.3199 -127.005L478.051 265.439" stroke="#181818" stroke-width="4"/>
<path d="M77.2256 -119.934L470.957 272.51" stroke="#181818" stroke-width="4"/>
<path d="M70.1314 -112.863L463.862 279.581" stroke="#181818" stroke-width="4"/>
<path d="M63.0371 -105.792L456.768 286.652" stroke="#181818" stroke-width="4"/>
<path d="M55.9429 -98.7208L449.674 293.724" stroke="#181818" stroke-width="4"/>
<path d="M48.8486 -91.6497L442.58 300.795" stroke="#181818" stroke-width="4"/>
<path d="M41.7544 -84.5786L435.485 307.866" stroke="#181818" stroke-width="4"/>
<path d="M34.6601 -77.5076L428.391 314.937" stroke="#181818" stroke-width="4"/>
<path d="M27.5659 -70.4365L421.297 322.008" stroke="#181818" stroke-width="4"/>
<path d="M20.4716 -63.3654L414.203 329.079" stroke="#181818" stroke-width="4"/>
<path d="M13.3773 -56.2944L407.108 336.15" stroke="#181818" stroke-width="4"/>
<path d="M6.28311 -49.2233L400.014 343.221" stroke="#181818" stroke-width="4"/>
<path d="M-0.811157 -42.1522L392.92 350.292" stroke="#181818" stroke-width="4"/>
<path d="M-7.9054 -35.0812L385.826 357.363" stroke="#181818" stroke-width="4"/>
<path d="M-14.9996 -28.0101L378.731 364.434" stroke="#181818" stroke-width="4"/>
<path d="M-22.0939 -20.939L371.637 371.505" stroke="#181818" stroke-width="4"/>
<path d="M-29.1882 -13.868L364.543 378.576" stroke="#181818" stroke-width="4"/>
<path d="M-36.2824 -6.79689L357.449 385.647" stroke="#181818" stroke-width="4"/>
<path d="M-43.3766 0.274168L350.354 392.718" stroke="#181818" stroke-width="4"/>
<path d="M-50.4709 7.34523L343.26 399.79" stroke="#181818" stroke-width="4"/>
<path d="M-57.5652 14.4163L336.166 406.861" stroke="#181818" stroke-width="4"/>
<path d="M-64.6594 21.4874L329.072 413.932" stroke="#181818" stroke-width="4"/>
<path d="M-71.7537 28.5584L321.977 421.003" stroke="#181818" stroke-width="4"/>
<path d="M-78.8479 35.6295L314.883 428.074" stroke="#181818" stroke-width="4"/>
<path d="M-85.9421 42.7006L307.789 435.145" stroke="#181818" stroke-width="4"/>
<path d="M-93.0364 49.7716L300.694 442.216" stroke="#181818" stroke-width="4"/>
<path d="M-100.131 56.8427L293.6 449.287" stroke="#181818" stroke-width="4"/>
<path d="M-107.225 63.9138L286.506 456.358" stroke="#181818" stroke-width="4"/>
<path d="M-114.319 70.9848L279.412 463.429" stroke="#181818" stroke-width="4"/>
<path d="M-121.413 78.0559L272.318 470.5" stroke="#181818" stroke-width="4"/>
<path d="M-128.508 85.127L265.223 477.571" stroke="#181818" stroke-width="4"/>
<path d="M-135.602 92.1981L258.129 484.642" stroke="#181818" stroke-width="4"/>
<path d="M-142.696 99.2691L251.035 491.713" stroke="#181818" stroke-width="4"/>
<path d="M-149.79 106.34L243.941 498.784" stroke="#181818" stroke-width="4"/>
<path d="M-156.885 113.411L236.846 505.856" stroke="#181818" stroke-width="4"/>
<path d="M-163.979 120.482L229.752 512.927" stroke="#181818" stroke-width="4"/>
<path d="M-171.073 127.553L222.658 519.998" stroke="#181818" stroke-width="4"/>
<path d="M-178.167 134.624L215.564 527.069" stroke="#181818" stroke-width="4"/>
<path d="M-185.262 141.696L208.469 534.14" stroke="#181818" stroke-width="4"/>
<path d="M-192.356 148.767L201.375 541.211" stroke="#181818" stroke-width="4"/>
<path d="M-199.45 155.838L194.281 548.282" stroke="#181818" stroke-width="4"/>
<path d="M-206.544 162.909L187.187 555.353" stroke="#181818" stroke-width="4"/>
<path d="M-213.639 169.98L180.092 562.424" stroke="#181818" stroke-width="4"/>
<path d="M-220.733 177.051L172.998 569.495" stroke="#181818" stroke-width="4"/>
<path d="M-227.827 184.122L165.904 576.566" stroke="#181818" stroke-width="4"/>
<path d="M-234.921 191.193L158.809 583.637" stroke="#181818" stroke-width="4"/>
<path d="M-242.016 198.264L151.715 590.708" stroke="#181818" stroke-width="4"/>
<path d="M-249.11 205.335L144.621 597.779" stroke="#181818" stroke-width="4"/>
<path d="M-256.204 212.406L137.527 604.851" stroke="#181818" stroke-width="4"/>
<path d="M-263.298 219.477L130.432 611.922" stroke="#181818" stroke-width="4"/>
</g>
</g>
<defs>
<clipPath id="clip0">
<rect width="306" height="385" fill="white"/>
</clipPath>
</defs>
</svg>
