<svg width="306" height="385" viewBox="0 0 306 385" fill="none" xmlns="http://www.w3.org/2000/svg">
<g clip-path="url(#clip0)">
<rect width="306" height="385" fill="black"/>
<path d="M195.639 -246L589.37 146.444" stroke="#181818" stroke-width="2"/>
<path d="M188.545 -238.929L582.276 153.515" stroke="#181818" stroke-width="2"/>
<path d="M181.451 -231.858L575.182 160.586" stroke="#181818" stroke-width="2"/>
<path d="M174.357 -224.787L568.088 167.657" stroke="#181818" stroke-width="2"/>
<path d="M167.262 -217.716L560.993 174.729" stroke="#181818" stroke-width="2"/>
<path d="M160.168 -210.645L553.899 181.8" stroke="#181818" stroke-width="2"/>
<path d="M153.074 -203.574L546.805 188.871" stroke="#181818" stroke-width="2"/>
<path d="M145.98 -196.503L539.711 195.942" stroke="#181818" stroke-width="2"/>
<path d="M138.885 -189.431L532.616 203.013" stroke="#181818" stroke-width="2"/>
<path d="M131.791 -182.36L525.522 210.084" stroke="#181818" stroke-width="2"/>
<path d="M124.697 -175.289L518.428 217.155" stroke="#181818" stroke-width="2"/>
<path d="M117.603 -168.218L511.333 224.226" stroke="#181818" stroke-width="2"/>
<path d="M110.508 -161.147L504.239 231.297" stroke="#181818" stroke-width="2"/>
<path d="M103.414 -154.076L497.145 238.368" stroke="#181818" stroke-width="2"/>
<path d="M96.3198 -147.005L490.051 245.439" stroke="#181818" stroke-width="2"/>
<path d="M89.2256 -139.934L482.957 252.51" stroke="#181818" stroke-width="2"/>
<path d="M82.1313 -132.863L475.862 259.581" stroke="#181818" stroke-width="2"/>
<path d="M75.037 -125.792L468.768 266.652" stroke="#181818" stroke-width="2"/>
<path d="M67.9428 -118.721L461.674 273.724" stroke="#181818" stroke-width="2"/>
<path d="M60.8486 -111.65L454.579 280.795" stroke="#181818" stroke-width="2"/>
<path d="M53.7543 -104.579L447.485 287.866" stroke="#181818" stroke-width="2"/>
<path d="M46.66 -97.5076L440.391 294.937" stroke="#181818" stroke-width="2"/>
<path d="M39.5658 -90.4365L433.297 302.008" stroke="#181818" stroke-width="2"/>
<path d="M32.4716 -83.3654L426.203 309.079" stroke="#181818" stroke-width="2"/>
<path d="M25.3773 -76.2944L419.108 316.15" stroke="#181818" stroke-width="2"/>
<path d="M18.283 -69.2233L412.014 323.221" stroke="#181818" stroke-width="2"/>
<path d="M11.1888 -62.1522L404.92 330.292" stroke="#181818" stroke-width="2"/>
<path d="M4.09454 -55.0812L397.826 337.363" stroke="#181818" stroke-width="2"/>
<path d="M-2.99969 -48.0101L390.731 344.434" stroke="#181818" stroke-width="2"/>
<path d="M-10.0939 -40.939L383.637 351.505" stroke="#181818" stroke-width="2"/>
<path d="M-17.1882 -33.868L376.543 358.576" stroke="#181818" stroke-width="2"/>
<path d="M-24.2825 -26.7969L369.448 365.647" stroke="#181818" stroke-width="2"/>
<path d="M-31.3767 -19.7258L362.354 372.718" stroke="#181818" stroke-width="2"/>
<path d="M-38.4709 -12.6548L355.26 379.79" stroke="#181818" stroke-width="2"/>
<path d="M-45.5652 -5.5837L348.166 386.861" stroke="#181818" stroke-width="2"/>
<path d="M-52.6595 1.48737L341.071 393.932" stroke="#181818" stroke-width="2"/>
<path d="M-59.7537 8.55844L333.977 401.003" stroke="#181818" stroke-width="2"/>
<path d="M-66.848 15.6295L326.883 408.074" stroke="#181818" stroke-width="2"/>
<path d="M-73.9422 22.7006L319.789 415.145" stroke="#181818" stroke-width="2"/>
<path d="M-81.0365 29.7716L312.694 422.216" stroke="#181818" stroke-width="2"/>
<path d="M-88.1307 36.8427L305.6 429.287" stroke="#181818" stroke-width="2"/>
<path d="M-95.225 43.9138L298.506 436.358" stroke="#181818" stroke-width="2"/>
<path d="M-102.319 50.9848L291.412 443.429" stroke="#181818" stroke-width="2"/>
<path d="M-109.413 58.0559L284.318 450.5" stroke="#181818" stroke-width="2"/>
<path d="M-116.508 65.127L277.223 457.571" stroke="#181818" stroke-width="2"/>
<path d="M-123.602 72.1981L270.129 464.642" stroke="#181818" stroke-width="2"/>
<path d="M-130.696 79.2691L263.035 471.713" stroke="#181818" stroke-width="2"/>
<path d="M-137.791 86.3402L255.94 478.784" stroke="#181818" stroke-width="2"/>
<path d="M-144.885 93.4113L248.846 485.856" stroke="#181818" stroke-width="2"/>
<path d="M-151.979 100.482L241.752 492.927" stroke="#181818" stroke-width="2"/>
<path d="M-159.073 107.553L234.658 499.998" stroke="#181818" stroke-width="2"/>
<path d="M-166.167 114.624L227.563 507.069" stroke="#181818" stroke-width="2"/>
<path d="M-173.262 121.696L220.469 514.14" stroke="#181818" stroke-width="2"/>
<path d="M-180.356 128.767L213.375 521.211" stroke="#181818" stroke-width="2"/>
<path d="M-187.45 135.838L206.281 528.282" stroke="#181818" stroke-width="2"/>
<path d="M-194.545 142.909L199.186 535.353" stroke="#181818" stroke-width="2"/>
<path d="M-201.639 149.98L192.092 542.424" stroke="#181818" stroke-width="2"/>
<path d="M-208.733 157.051L184.998 549.495" stroke="#181818" stroke-width="2"/>
<path d="M-215.827 164.122L177.904 556.566" stroke="#181818" stroke-width="2"/>
<path d="M-222.922 171.193L170.809 563.637" stroke="#181818" stroke-width="2"/>
<path d="M-230.016 178.264L163.715 570.708" stroke="#181818" stroke-width="2"/>
<path d="M-237.11 185.335L156.621 577.779" stroke="#181818" stroke-width="2"/>
<path d="M-244.204 192.406L149.527 584.851" stroke="#181818" stroke-width="2"/>
<path d="M-251.298 199.477L142.432 591.922" stroke="#181818" stroke-width="2"/>
<mask id="mask0" mask-type="alpha" maskUnits="userSpaceOnUse" x="37" y="28" width="232" height="332">
<path fill-rule="evenodd" clip-rule="evenodd" d="M123 80C123 67.3269 137.327 48 155 28C172.673 48 187 67.3269 187 80C187 97.6731 172.673 112 155 112C137.327 112 123 97.6731 123 80ZM37 140C37 127.327 51.3269 108 69 88C86.6731 108 101 127.327 101 140C101 157.673 86.6731 172 69 172C51.3269 172 37 157.673 37 140ZM123 204C123 191.327 137.327 172 155 152C172.673 172 187 191.327 187 204C187 221.673 172.673 236 155 236C137.327 236 123 221.673 123 204ZM155 276C137.327 296 123 315.327 123 328C123 345.673 137.327 360 155 360C172.673 360 187 345.673 187 328C187 315.327 172.673 296 155 276ZM69 212C51.3269 232 37 251.327 37 264C37 281.673 51.3269 296 69 296C86.6731 296 101 281.673 101 264C101 251.327 86.6731 232 69 212ZM205 264C205 251.327 219.327 232 237 212C254.673 232 269 251.327 269 264C269 281.673 254.673 296 237 296C219.327 296 205 281.673 205 264ZM237 88C219.327 108 205 127.327 205 140C205 157.673 219.327 172 237 172C254.673 172 269 157.673 269 140C269 127.327 254.673 108 237 88Z" fill="#181818"/>
</mask>
<g mask="url(#mask0)">
<path d="M169.639 -226L563.37 166.444" stroke="#181818" stroke-width="6"/>
<path d="M162.545 -218.929L556.276 173.515" stroke="#181818" stroke-width="6"/>
<path d="M155.451 -211.858L549.182 180.586" stroke="#181818" stroke-width="6"/>
<path d="M148.357 -204.787L542.088 187.657" stroke="#181818" stroke-width="6"/>
<path d="M141.262 -197.716L534.993 194.729" stroke="#181818" stroke-width="6"/>
<path d="M134.168 -190.645L527.899 201.8" stroke="#181818" stroke-width="6"/>
<path d="M127.074 -183.574L520.805 208.871" stroke="#181818" stroke-width="6"/>
<path d="M119.98 -176.503L513.711 215.942" stroke="#181818" stroke-width="6"/>
<path d="M112.885 -169.431L506.616 223.013" stroke="#181818" stroke-width="6"/>
<path d="M105.791 -162.36L499.522 230.084" stroke="#181818" stroke-width="6"/>
<path d="M98.697 -155.289L492.428 237.155" stroke="#181818" stroke-width="6"/>
<path d="M91.6027 -148.218L485.334 244.226" stroke="#181818" stroke-width="6"/>
<path d="M84.5084 -141.147L478.239 251.297" stroke="#181818" stroke-width="6"/>
<path d="M77.4142 -134.076L471.145 258.368" stroke="#181818" stroke-width="6"/>
<path d="M70.3199 -127.005L464.051 265.439" stroke="#181818" stroke-width="6"/>
<path d="M63.2257 -119.934L456.957 272.51" stroke="#181818" stroke-width="6"/>
<path d="M56.1314 -112.863L449.862 279.581" stroke="#181818" stroke-width="6"/>
<path d="M49.0372 -105.792L442.768 286.652" stroke="#181818" stroke-width="6"/>
<path d="M41.9429 -98.7208L435.674 293.724" stroke="#181818" stroke-width="6"/>
<path d="M34.8487 -91.6497L428.58 300.795" stroke="#181818" stroke-width="6"/>
<path d="M27.7544 -84.5786L421.485 307.866" stroke="#181818" stroke-width="6"/>
<path d="M20.6602 -77.5076L414.391 314.937" stroke="#181818" stroke-width="6"/>
<path d="M13.5659 -70.4365L407.297 322.008" stroke="#181818" stroke-width="6"/>
<path d="M6.47168 -63.3654L400.203 329.079" stroke="#181818" stroke-width="6"/>
<path d="M-0.622559 -56.2944L393.108 336.15" stroke="#181818" stroke-width="6"/>
<path d="M-7.71686 -49.2233L386.014 343.221" stroke="#181818" stroke-width="6"/>
<path d="M-14.8111 -42.1522L378.92 350.292" stroke="#181818" stroke-width="6"/>
<path d="M-21.9053 -35.0812L371.826 357.363" stroke="#181818" stroke-width="6"/>
<path d="M-28.9996 -28.0101L364.731 364.434" stroke="#181818" stroke-width="6"/>
<path d="M-36.0938 -20.939L357.637 371.505" stroke="#181818" stroke-width="6"/>
<path d="M-43.1881 -13.868L350.543 378.576" stroke="#181818" stroke-width="6"/>
<path d="M-50.2823 -6.79689L343.449 385.647" stroke="#181818" stroke-width="6"/>
<path d="M-57.3766 0.274161L336.354 392.718" stroke="#181818" stroke-width="6"/>
<path d="M-64.4709 7.34523L329.26 399.789" stroke="#181818" stroke-width="6"/>
<path d="M-71.5652 14.4163L322.166 406.861" stroke="#181818" stroke-width="6"/>
<path d="M-78.6594 21.4874L315.072 413.932" stroke="#181818" stroke-width="6"/>
<path d="M-85.7537 28.5584L307.977 421.003" stroke="#181818" stroke-width="6"/>
<path d="M-92.8479 35.6295L300.883 428.074" stroke="#181818" stroke-width="6"/>
<path d="M-99.9421 42.7006L293.789 435.145" stroke="#181818" stroke-width="6"/>
<path d="M-107.036 49.7716L286.695 442.216" stroke="#181818" stroke-width="6"/>
<path d="M-114.131 56.8427L279.6 449.287" stroke="#181818" stroke-width="6"/>
<path d="M-121.225 63.9138L272.506 456.358" stroke="#181818" stroke-width="6"/>
<path d="M-128.319 70.9848L265.412 463.429" stroke="#181818" stroke-width="6"/>
<path d="M-135.413 78.0559L258.318 470.5" stroke="#181818" stroke-width="6"/>
<path d="M-142.508 85.127L251.223 477.571" stroke="#181818" stroke-width="6"/>
<path d="M-149.602 92.198L244.129 484.642" stroke="#181818" stroke-width="6"/>
<path d="M-156.696 99.2691L237.035 491.713" stroke="#181818" stroke-width="6"/>
<path d="M-163.79 106.34L229.941 498.784" stroke="#181818" stroke-width="6"/>
<path d="M-170.885 113.411L222.846 505.856" stroke="#181818" stroke-width="6"/>
<path d="M-177.979 120.482L215.752 512.927" stroke="#181818" stroke-width="6"/>
<path d="M-185.073 127.553L208.658 519.998" stroke="#181818" stroke-width="6"/>
<path d="M-192.167 134.624L201.563 527.069" stroke="#181818" stroke-width="6"/>
<path d="M-199.262 141.696L194.469 534.14" stroke="#181818" stroke-width="6"/>
<path d="M-206.356 148.767L187.375 541.211" stroke="#181818" stroke-width="6"/>
<path d="M-213.45 155.838L180.281 548.282" stroke="#181818" stroke-width="6"/>
<path d="M-220.544 162.909L173.187 555.353" stroke="#181818" stroke-width="6"/>
<path d="M-227.639 169.98L166.092 562.424" stroke="#181818" stroke-width="6"/>
<path d="M-234.733 177.051L158.998 569.495" stroke="#181818" stroke-width="6"/>
<path d="M-241.827 184.122L151.904 576.566" stroke="#181818" stroke-width="6"/>
<path d="M-248.921 191.193L144.81 583.637" stroke="#181818" stroke-width="6"/>
<path d="M-256.016 198.264L137.715 590.708" stroke="#181818" stroke-width="6"/>
<path d="M-263.11 205.335L130.621 597.779" stroke="#181818" stroke-width="6"/>
<path d="M-270.204 212.406L123.527 604.851" stroke="#181818" stroke-width="6"/>
<path d="M-277.298 219.477L116.432 611.922" stroke="#181818" stroke-width="6"/>
</g>
</g>
<defs>
<clipPath id="clip0">
<rect width="306" height="385" fill="white"/>
</clipPath>
</defs>
</svg>
