<svg width="306" height="385" viewBox="0 0 306 385" fill="none" xmlns="http://www.w3.org/2000/svg">
<g clip-path="url(#clip0)">
<rect width="306" height="385" fill="black"/>
<path d="M195 -246L587.444 146.444" stroke="#181818" stroke-width="2"/>
<path d="M187.929 -238.929L580.373 153.515" stroke="#181818" stroke-width="2"/>
<path d="M180.858 -231.858L573.302 160.586" stroke="#181818" stroke-width="2"/>
<path d="M173.787 -224.787L566.231 167.657" stroke="#181818" stroke-width="2"/>
<path d="M166.716 -217.716L559.16 174.729" stroke="#181818" stroke-width="2"/>
<path d="M159.645 -210.645L552.089 181.8" stroke="#181818" stroke-width="2"/>
<path d="M152.574 -203.574L545.018 188.871" stroke="#181818" stroke-width="2"/>
<path d="M145.503 -196.503L537.947 195.942" stroke="#181818" stroke-width="2"/>
<path d="M138.431 -189.431L530.876 203.013" stroke="#181818" stroke-width="2"/>
<path d="M131.36 -182.36L523.805 210.084" stroke="#181818" stroke-width="2"/>
<path d="M124.289 -175.289L516.734 217.155" stroke="#181818" stroke-width="2"/>
<path d="M117.218 -168.218L509.663 224.226" stroke="#181818" stroke-width="2"/>
<path d="M110.147 -161.147L502.591 231.297" stroke="#181818" stroke-width="2"/>
<path d="M103.076 -154.076L495.52 238.368" stroke="#181818" stroke-width="2"/>
<path d="M96.0051 -147.005L488.449 245.439" stroke="#181818" stroke-width="2"/>
<path d="M88.934 -139.934L481.378 252.51" stroke="#181818" stroke-width="2"/>
<path d="M81.8629 -132.863L474.307 259.581" stroke="#181818" stroke-width="2"/>
<path d="M74.7918 -125.792L467.236 266.652" stroke="#181818" stroke-width="2"/>
<path d="M67.7208 -118.721L460.165 273.724" stroke="#181818" stroke-width="2"/>
<path d="M60.6497 -111.65L453.094 280.795" stroke="#181818" stroke-width="2"/>
<path d="M53.5786 -104.579L446.023 287.866" stroke="#181818" stroke-width="2"/>
<path d="M46.5076 -97.5076L438.952 294.937" stroke="#181818" stroke-width="2"/>
<path d="M39.4365 -90.4365L431.881 302.008" stroke="#181818" stroke-width="2"/>
<path d="M32.3654 -83.3654L424.81 309.079" stroke="#181818" stroke-width="2"/>
<path d="M25.2944 -76.2944L417.739 316.15" stroke="#181818" stroke-width="2"/>
<path d="M18.2233 -69.2233L410.668 323.221" stroke="#181818" stroke-width="2"/>
<path d="M11.1523 -62.1522L403.597 330.292" stroke="#181818" stroke-width="2"/>
<path d="M4.08118 -55.0812L396.525 337.363" stroke="#181818" stroke-width="2"/>
<path d="M-2.98987 -48.0101L389.454 344.434" stroke="#181818" stroke-width="2"/>
<path d="M-10.061 -40.939L382.383 351.505" stroke="#181818" stroke-width="2"/>
<path d="M-17.132 -33.868L375.312 358.576" stroke="#181818" stroke-width="2"/>
<path d="M-24.2031 -26.7969L368.241 365.647" stroke="#181818" stroke-width="2"/>
<path d="M-31.2742 -19.7258L361.17 372.718" stroke="#181818" stroke-width="2"/>
<path d="M-38.3452 -12.6548L354.099 379.79" stroke="#181818" stroke-width="2"/>
<path d="M-45.4163 -5.58371L347.028 386.861" stroke="#181818" stroke-width="2"/>
<path d="M-52.4874 1.48737L339.957 393.932" stroke="#181818" stroke-width="2"/>
<path d="M-59.5584 8.55844L332.886 401.003" stroke="#181818" stroke-width="2"/>
<path d="M-66.6295 15.6295L325.815 408.074" stroke="#181818" stroke-width="2"/>
<path d="M-73.7006 22.7006L318.744 415.145" stroke="#181818" stroke-width="2"/>
<path d="M-80.7717 29.7716L311.673 422.216" stroke="#181818" stroke-width="2"/>
<path d="M-87.8427 36.8427L304.602 429.287" stroke="#181818" stroke-width="2"/>
<path d="M-94.9138 43.9138L297.531 436.358" stroke="#181818" stroke-width="2"/>
<path d="M-101.985 50.9848L290.459 443.429" stroke="#181818" stroke-width="2"/>
<path d="M-109.056 58.0559L283.388 450.5" stroke="#181818" stroke-width="2"/>
<path d="M-116.127 65.127L276.317 457.571" stroke="#181818" stroke-width="2"/>
<path d="M-123.198 72.1981L269.246 464.642" stroke="#181818" stroke-width="2"/>
<path d="M-130.269 79.2691L262.175 471.713" stroke="#181818" stroke-width="2"/>
<path d="M-137.34 86.3402L255.104 478.784" stroke="#181818" stroke-width="2"/>
<path d="M-144.411 93.4113L248.033 485.856" stroke="#181818" stroke-width="2"/>
<path d="M-151.482 100.482L240.962 492.927" stroke="#181818" stroke-width="2"/>
<path d="M-158.553 107.553L233.891 499.998" stroke="#181818" stroke-width="2"/>
<path d="M-165.624 114.624L226.82 507.069" stroke="#181818" stroke-width="2"/>
<path d="M-172.695 121.696L219.749 514.14" stroke="#181818" stroke-width="2"/>
<path d="M-179.767 128.767L212.678 521.211" stroke="#181818" stroke-width="2"/>
<path d="M-186.838 135.838L205.607 528.282" stroke="#181818" stroke-width="2"/>
<path d="M-193.909 142.909L198.536 535.353" stroke="#181818" stroke-width="2"/>
<path d="M-200.98 149.98L191.464 542.424" stroke="#181818" stroke-width="2"/>
<path d="M-208.051 157.051L184.393 549.495" stroke="#181818" stroke-width="2"/>
<path d="M-215.122 164.122L177.322 556.566" stroke="#181818" stroke-width="2"/>
<path d="M-222.193 171.193L170.251 563.637" stroke="#181818" stroke-width="2"/>
<path d="M-229.264 178.264L163.18 570.708" stroke="#181818" stroke-width="2"/>
<path d="M-236.335 185.335L156.109 577.779" stroke="#181818" stroke-width="2"/>
<path d="M-243.406 192.406L149.038 584.85" stroke="#181818" stroke-width="2"/>
<path d="M-250.477 199.477L141.967 591.922" stroke="#181818" stroke-width="2"/>
<mask id="mask0" mask-type="alpha" maskUnits="userSpaceOnUse" x="0" y="0" width="306" height="385">
<rect width="306" height="385" fill="#222222"/>
</mask>
<g mask="url(#mask0)">
<mask id="mask1" mask-type="alpha" maskUnits="userSpaceOnUse" x="94" y="27" width="172" height="100">
<path fill-rule="evenodd" clip-rule="evenodd" d="M123.074 127C123.105 127 123.136 127 123.167 127C123.198 127 123.229 127 123.26 127H236.036C236.067 127 236.098 127 236.129 127C252.238 127 265.296 113.942 265.296 97.8333C265.296 81.725 252.238 68.6667 236.129 68.6667C235.439 68.6667 234.755 68.6907 234.077 68.7378C231.896 45.326 212.195 27 188.213 27C172.7 27 158.978 34.6681 150.631 46.4208C147.364 44.3818 143.505 43.2036 139.37 43.2036C127.609 43.2036 118.074 52.7383 118.074 64.4999C118.074 66.0541 118.241 67.5694 118.557 69.0289C104.639 71.2389 94 83.2937 94 97.8333C94 113.476 106.314 126.243 121.778 126.968V127H123.074Z" fill="#181818"/>
</mask>
<g mask="url(#mask1)">
<path d="M199 -225L591.444 167.444" stroke="#181818" stroke-width="6"/>
<path d="M191.929 -217.929L584.373 174.515" stroke="#181818" stroke-width="6"/>
<path d="M184.858 -210.858L577.302 181.586" stroke="#181818" stroke-width="6"/>
<path d="M177.787 -203.787L570.231 188.657" stroke="#181818" stroke-width="6"/>
<path d="M170.716 -196.716L563.16 195.729" stroke="#181818" stroke-width="6"/>
<path d="M163.645 -189.645L556.089 202.8" stroke="#181818" stroke-width="6"/>
<path d="M156.574 -182.574L549.018 209.871" stroke="#181818" stroke-width="6"/>
<path d="M149.503 -175.503L541.947 216.942" stroke="#181818" stroke-width="6"/>
<path d="M142.431 -168.431L534.876 224.013" stroke="#181818" stroke-width="6"/>
<path d="M135.36 -161.36L527.805 231.084" stroke="#181818" stroke-width="6"/>
<path d="M128.289 -154.289L520.734 238.155" stroke="#181818" stroke-width="6"/>
<path d="M121.218 -147.218L513.663 245.226" stroke="#181818" stroke-width="6"/>
<path d="M114.147 -140.147L506.591 252.297" stroke="#181818" stroke-width="6"/>
<path d="M107.076 -133.076L499.52 259.368" stroke="#181818" stroke-width="6"/>
<path d="M100.005 -126.005L492.449 266.439" stroke="#181818" stroke-width="6"/>
<path d="M92.934 -118.934L485.378 273.51" stroke="#181818" stroke-width="6"/>
<path d="M85.8629 -111.863L478.307 280.581" stroke="#181818" stroke-width="6"/>
<path d="M78.7918 -104.792L471.236 287.652" stroke="#181818" stroke-width="6"/>
<path d="M71.7208 -97.7208L464.165 294.724" stroke="#181818" stroke-width="6"/>
<path d="M64.6497 -90.6497L457.094 301.795" stroke="#181818" stroke-width="6"/>
<path d="M57.5786 -83.5787L450.023 308.866" stroke="#181818" stroke-width="6"/>
<path d="M50.5076 -76.5076L442.952 315.937" stroke="#181818" stroke-width="6"/>
<path d="M43.4365 -69.4365L435.881 323.008" stroke="#181818" stroke-width="6"/>
<path d="M36.3654 -62.3654L428.81 330.079" stroke="#181818" stroke-width="6"/>
<path d="M29.2944 -55.2944L421.739 337.15" stroke="#181818" stroke-width="6"/>
<path d="M22.2233 -48.2233L414.668 344.221" stroke="#181818" stroke-width="6"/>
<path d="M15.1523 -41.1523L407.597 351.292" stroke="#181818" stroke-width="6"/>
<path d="M8.08118 -34.0812L400.525 358.363" stroke="#181818" stroke-width="6"/>
<path d="M1.01013 -27.0101L393.454 365.434" stroke="#181818" stroke-width="6"/>
<path d="M-6.06097 -19.939L386.383 372.505" stroke="#181818" stroke-width="6"/>
<path d="M-13.132 -12.868L379.312 379.576" stroke="#181818" stroke-width="6"/>
<path d="M-20.2031 -5.79691L372.241 386.647" stroke="#181818" stroke-width="6"/>
<path d="M-27.2742 1.27417L365.17 393.718" stroke="#181818" stroke-width="6"/>
<path d="M-34.3452 8.34525L358.099 400.79" stroke="#181818" stroke-width="6"/>
<path d="M-41.4163 15.4163L351.028 407.861" stroke="#181818" stroke-width="6"/>
<path d="M-48.4874 22.4874L343.957 414.932" stroke="#181818" stroke-width="6"/>
<path d="M-55.5584 29.5584L336.886 422.003" stroke="#181818" stroke-width="6"/>
<path d="M-62.6295 36.6295L329.815 429.074" stroke="#181818" stroke-width="6"/>
<path d="M-69.7006 43.7006L322.744 436.145" stroke="#181818" stroke-width="6"/>
<path d="M-76.7717 50.7716L315.673 443.216" stroke="#181818" stroke-width="6"/>
<path d="M-83.8427 57.8427L308.602 450.287" stroke="#181818" stroke-width="6"/>
<path d="M-90.9138 64.9138L301.531 457.358" stroke="#181818" stroke-width="6"/>
<path d="M-97.9849 71.9848L294.459 464.429" stroke="#181818" stroke-width="6"/>
<path d="M-105.056 79.0559L287.388 471.5" stroke="#181818" stroke-width="6"/>
<path d="M-112.127 86.127L280.317 478.571" stroke="#181818" stroke-width="6"/>
<path d="M-119.198 93.1981L273.246 485.642" stroke="#181818" stroke-width="6"/>
<path d="M-126.269 100.269L266.175 492.713" stroke="#181818" stroke-width="6"/>
<path d="M-133.34 107.34L259.104 499.784" stroke="#181818" stroke-width="6"/>
<path d="M-140.411 114.411L252.033 506.856" stroke="#181818" stroke-width="6"/>
<path d="M-147.482 121.482L244.962 513.927" stroke="#181818" stroke-width="6"/>
<path d="M-154.553 128.553L237.891 520.998" stroke="#181818" stroke-width="6"/>
</g>
<mask id="mask2" mask-type="alpha" maskUnits="userSpaceOnUse" x="42" y="116" width="278" height="163">
<path fill-rule="evenodd" clip-rule="evenodd" d="M89.0655 278.762C89.1133 278.762 89.1611 278.762 89.209 278.762C89.2569 278.762 89.3047 278.762 89.3526 278.762H271.907C271.954 278.762 272.002 278.762 272.05 278.762C298.123 278.762 319.259 257.626 319.259 231.553C319.259 205.48 298.123 184.344 272.05 184.344C270.933 184.344 269.826 184.383 268.728 184.459C265.198 146.565 233.309 116.903 194.493 116.903C169.383 116.903 147.173 129.314 133.663 148.337C128.375 145.037 122.129 143.13 115.436 143.13C96.3992 143.13 80.9664 158.563 80.9664 177.6C80.9664 180.115 81.2359 182.568 81.7475 184.931C59.2202 188.507 42 208.019 42 231.553C42 256.873 61.9321 277.536 86.9611 278.71V278.762H89.0655Z" fill="#181818"/>
</mask>
<g mask="url(#mask2)">
<path d="M235.716 -272.716L628.16 119.728" stroke="#181818" stroke-width="6"/>
<path d="M228.645 -265.645L621.089 126.8" stroke="#181818" stroke-width="6"/>
<path d="M221.574 -258.574L614.018 133.871" stroke="#181818" stroke-width="6"/>
<path d="M214.503 -251.503L606.947 140.942" stroke="#181818" stroke-width="6"/>
<path d="M207.431 -244.432L599.876 148.013" stroke="#181818" stroke-width="6"/>
<path d="M200.36 -237.36L592.805 155.084" stroke="#181818" stroke-width="6"/>
<path d="M193.289 -230.289L585.734 162.155" stroke="#181818" stroke-width="6"/>
<path d="M186.218 -223.218L578.663 169.226" stroke="#181818" stroke-width="6"/>
<path d="M179.147 -216.147L571.591 176.297" stroke="#181818" stroke-width="6"/>
<path d="M172.076 -209.076L564.52 183.368" stroke="#181818" stroke-width="6"/>
<path d="M165.005 -202.005L557.449 190.439" stroke="#181818" stroke-width="6"/>
<path d="M157.934 -194.934L550.378 197.51" stroke="#181818" stroke-width="6"/>
<path d="M150.863 -187.863L543.307 204.581" stroke="#181818" stroke-width="6"/>
<path d="M143.792 -180.792L536.236 211.652" stroke="#181818" stroke-width="6"/>
<path d="M136.721 -173.721L529.165 218.723" stroke="#181818" stroke-width="6"/>
<path d="M129.65 -166.65L522.094 225.794" stroke="#181818" stroke-width="6"/>
<path d="M122.579 -159.579L515.023 232.866" stroke="#181818" stroke-width="6"/>
<path d="M115.508 -152.508L507.952 239.937" stroke="#181818" stroke-width="6"/>
<path d="M108.437 -145.437L500.881 247.008" stroke="#181818" stroke-width="6"/>
<path d="M101.365 -138.365L493.81 254.079" stroke="#181818" stroke-width="6"/>
<path d="M94.2944 -131.294L486.739 261.15" stroke="#181818" stroke-width="6"/>
<path d="M87.2233 -124.223L479.668 268.221" stroke="#181818" stroke-width="6"/>
<path d="M80.1523 -117.152L472.597 275.292" stroke="#181818" stroke-width="6"/>
<path d="M73.0812 -110.081L465.525 282.363" stroke="#181818" stroke-width="6"/>
<path d="M66.0101 -103.01L458.454 289.434" stroke="#181818" stroke-width="6"/>
<path d="M58.939 -95.9391L451.383 296.505" stroke="#181818" stroke-width="6"/>
<path d="M51.868 -88.868L444.312 303.576" stroke="#181818" stroke-width="6"/>
<path d="M44.7969 -81.7969L437.241 310.647" stroke="#181818" stroke-width="6"/>
<path d="M37.7258 -74.7259L430.17 317.718" stroke="#181818" stroke-width="6"/>
<path d="M30.6548 -67.6548L423.099 324.789" stroke="#181818" stroke-width="6"/>
<path d="M23.5837 -60.5837L416.028 331.861" stroke="#181818" stroke-width="6"/>
<path d="M16.5126 -53.5127L408.957 338.932" stroke="#181818" stroke-width="6"/>
<path d="M9.44156 -46.4417L401.886 346.003" stroke="#181818" stroke-width="6"/>
<path d="M2.37048 -39.3705L394.815 353.074" stroke="#181818" stroke-width="6"/>
<path d="M-4.70056 -32.2995L387.744 360.145" stroke="#181818" stroke-width="6"/>
<path d="M-11.7717 -25.2284L380.673 367.216" stroke="#181818" stroke-width="6"/>
<path d="M-18.8427 -18.1573L373.602 374.287" stroke="#181818" stroke-width="6"/>
<path d="M-25.9138 -11.0863L366.531 381.358" stroke="#181818" stroke-width="6"/>
<path d="M-32.9849 -4.01523L359.459 388.429" stroke="#181818" stroke-width="6"/>
<path d="M-40.0559 3.05585L352.388 395.5" stroke="#181818" stroke-width="6"/>
<path d="M-47.127 10.1269L345.317 402.571" stroke="#181818" stroke-width="6"/>
<path d="M-54.1981 17.198L338.246 409.642" stroke="#181818" stroke-width="6"/>
<path d="M-61.2691 24.269L331.175 416.713" stroke="#181818" stroke-width="6"/>
<path d="M-68.3402 31.3401L324.104 423.784" stroke="#181818" stroke-width="6"/>
<path d="M-75.4113 38.4112L317.033 430.855" stroke="#181818" stroke-width="6"/>
<path d="M-82.4823 45.4823L309.962 437.927" stroke="#181818" stroke-width="6"/>
<path d="M-89.5534 52.5533L302.891 444.998" stroke="#181818" stroke-width="6"/>
<path d="M-96.6245 59.6244L295.82 452.069" stroke="#181818" stroke-width="6"/>
<path d="M-103.695 66.6955L288.749 459.14" stroke="#181818" stroke-width="6"/>
<path d="M-110.767 73.7665L281.678 466.211" stroke="#181818" stroke-width="6"/>
<path d="M-117.838 80.8376L274.607 473.282" stroke="#181818" stroke-width="6"/>
<path d="M-124.909 87.9087L267.536 480.353" stroke="#181818" stroke-width="6"/>
<path d="M-131.98 94.9797L260.464 487.424" stroke="#181818" stroke-width="6"/>
<path d="M-139.051 102.051L253.393 494.495" stroke="#181818" stroke-width="6"/>
<path d="M-146.122 109.122L246.322 501.566" stroke="#181818" stroke-width="6"/>
<path d="M-153.193 116.193L239.251 508.637" stroke="#181818" stroke-width="6"/>
<path d="M-160.264 123.264L232.18 515.708" stroke="#181818" stroke-width="6"/>
<path d="M-167.335 130.335L225.109 522.779" stroke="#181818" stroke-width="6"/>
<path d="M-174.406 137.406L218.038 529.85" stroke="#181818" stroke-width="6"/>
<path d="M-181.477 144.477L210.967 536.921" stroke="#181818" stroke-width="6"/>
</g>
</g>
<mask id="mask3" mask-type="alpha" maskUnits="userSpaceOnUse" x="15" y="228" width="169" height="109">
<path fill-rule="evenodd" clip-rule="evenodd" d="M92.6192 228.033C109.952 228.033 125.038 237.647 132.837 251.834C135.97 249.863 139.679 248.723 143.655 248.723C154.891 248.723 164 257.832 164 269.068C164 271.281 163.646 273.412 162.993 275.407C175.24 279.802 184 291.516 184 305.275C184 322.706 169.942 336.854 152.545 336.999V337L152.275 337H50.5496L49.313 337V336.978C30.6507 336.327 15.7215 320.993 15.7215 302.172C15.7215 284.067 29.5356 269.189 47.1984 267.503C50.3089 245.2 69.4593 228.033 92.6192 228.033Z" fill="#222222"/>
</mask>
<g mask="url(#mask3)">
<path d="M123 -130L515.444 262.444" stroke="#181818" stroke-width="8"/>
<path d="M115.929 -122.929L508.373 269.515" stroke="#181818" stroke-width="8"/>
<path d="M108.858 -115.858L501.302 276.586" stroke="#181818" stroke-width="8"/>
<path d="M101.787 -108.787L494.231 283.657" stroke="#181818" stroke-width="8"/>
<path d="M94.7157 -101.716L487.16 290.729" stroke="#181818" stroke-width="8"/>
<path d="M87.6447 -94.6447L480.089 297.8" stroke="#181818" stroke-width="8"/>
<path d="M80.5736 -87.5736L473.018 304.871" stroke="#181818" stroke-width="8"/>
<path d="M73.5025 -80.5025L465.947 311.942" stroke="#181818" stroke-width="8"/>
<path d="M66.4315 -73.4315L458.876 319.013" stroke="#181818" stroke-width="8"/>
<path d="M59.3604 -66.3604L451.805 326.084" stroke="#181818" stroke-width="8"/>
<path d="M52.2893 -59.2893L444.734 333.155" stroke="#181818" stroke-width="8"/>
<path d="M45.2183 -52.2183L437.663 340.226" stroke="#181818" stroke-width="8"/>
<path d="M38.1472 -45.1472L430.591 347.297" stroke="#181818" stroke-width="8"/>
<path d="M31.0761 -38.0761L423.52 354.368" stroke="#181818" stroke-width="8"/>
<path d="M24.0051 -31.0051L416.449 361.439" stroke="#181818" stroke-width="8"/>
<path d="M16.934 -23.934L409.378 368.51" stroke="#181818" stroke-width="8"/>
<path d="M9.86292 -16.8629L402.307 375.581" stroke="#181818" stroke-width="8"/>
<path d="M2.79187 -9.79184L395.236 382.652" stroke="#181818" stroke-width="8"/>
<path d="M-4.27924 -2.72079L388.165 389.723" stroke="#181818" stroke-width="8"/>
<path d="M-11.3503 4.35028L381.094 396.795" stroke="#181818" stroke-width="8"/>
<path d="M-18.4213 11.4214L374.023 403.866" stroke="#181818" stroke-width="8"/>
<path d="M-25.4924 18.4924L366.952 410.937" stroke="#181818" stroke-width="8"/>
<path d="M-32.5635 25.5635L359.881 418.008" stroke="#181818" stroke-width="8"/>
<path d="M-39.6346 32.6346L352.81 425.079" stroke="#181818" stroke-width="8"/>
<path d="M-46.7056 39.7056L345.739 432.15" stroke="#181818" stroke-width="8"/>
<path d="M-53.7767 46.7767L338.668 439.221" stroke="#181818" stroke-width="8"/>
<path d="M-60.8478 53.8477L331.596 446.292" stroke="#181818" stroke-width="8"/>
<path d="M-67.9188 60.9188L324.525 453.363" stroke="#181818" stroke-width="8"/>
<path d="M-74.9899 67.9899L317.454 460.434" stroke="#181818" stroke-width="8"/>
<path d="M-82.061 75.061L310.383 467.505" stroke="#181818" stroke-width="8"/>
<path d="M-89.132 82.132L303.312 474.576" stroke="#181818" stroke-width="8"/>
<path d="M-96.2031 89.2031L296.241 481.647" stroke="#181818" stroke-width="8"/>
<path d="M-103.274 96.2742L289.17 488.718" stroke="#181818" stroke-width="8"/>
<path d="M-110.345 103.345L282.099 495.79" stroke="#181818" stroke-width="8"/>
<path d="M-117.416 110.416L275.028 502.861" stroke="#181818" stroke-width="8"/>
<path d="M-124.487 117.487L267.957 509.932" stroke="#181818" stroke-width="8"/>
<path d="M-131.558 124.558L260.886 517.003" stroke="#181818" stroke-width="8"/>
<path d="M-138.63 131.63L253.815 524.074" stroke="#181818" stroke-width="8"/>
<path d="M-145.701 138.701L246.744 531.145" stroke="#181818" stroke-width="8"/>
<path d="M-152.772 145.772L239.673 538.216" stroke="#181818" stroke-width="8"/>
<path d="M-159.843 152.843L232.602 545.287" stroke="#181818" stroke-width="8"/>
<path d="M-166.914 159.914L225.531 552.358" stroke="#181818" stroke-width="8"/>
<path d="M-173.985 166.985L218.459 559.429" stroke="#181818" stroke-width="8"/>
<path d="M-181.056 174.056L211.388 566.5" stroke="#181818" stroke-width="8"/>
<path d="M-188.127 181.127L204.317 573.571" stroke="#181818" stroke-width="8"/>
<path d="M-195.198 188.198L197.246 580.642" stroke="#181818" stroke-width="8"/>
<path d="M-202.269 195.269L190.175 587.713" stroke="#181818" stroke-width="8"/>
<path d="M-209.34 202.34L183.104 594.784" stroke="#181818" stroke-width="8"/>
<path d="M-216.411 209.411L176.033 601.856" stroke="#181818" stroke-width="8"/>
<path d="M-223.482 216.482L168.962 608.927" stroke="#181818" stroke-width="8"/>
<path d="M-230.553 223.553L161.891 615.998" stroke="#181818" stroke-width="8"/>
<path d="M-237.624 230.624L154.82 623.069" stroke="#181818" stroke-width="8"/>
<path d="M-244.695 237.696L147.749 630.14" stroke="#181818" stroke-width="8"/>
<path d="M-251.767 244.767L140.678 637.211" stroke="#181818" stroke-width="8"/>
<path d="M-258.838 251.838L133.607 644.282" stroke="#181818" stroke-width="8"/>
<path d="M-265.909 258.909L126.536 651.353" stroke="#181818" stroke-width="8"/>
<path d="M-272.98 265.98L119.464 658.424" stroke="#181818" stroke-width="8"/>
<path d="M-280.051 273.051L112.393 665.495" stroke="#181818" stroke-width="8"/>
<path d="M-287.122 280.122L105.322 672.566" stroke="#181818" stroke-width="8"/>
<path d="M-294.193 287.193L98.2513 679.637" stroke="#181818" stroke-width="8"/>
<path d="M-301.264 294.264L91.1802 686.708" stroke="#181818" stroke-width="8"/>
<path d="M-308.335 301.335L84.1091 693.779" stroke="#181818" stroke-width="8"/>
<path d="M-315.406 308.406L77.0381 700.85" stroke="#181818" stroke-width="8"/>
<path d="M-322.477 315.477L69.967 707.922" stroke="#181818" stroke-width="8"/>
</g>
</g>
<defs>
<clipPath id="clip0">
<rect width="306" height="385" fill="white"/>
</clipPath>
</defs>
</svg>
