<svg width="306" height="385" viewBox="0 0 306 385" fill="none" xmlns="http://www.w3.org/2000/svg">
<g clip-path="url(#clip0)">
<rect width="306" height="385" fill="black"/>
<path d="M195 -246L587.444 146.444" stroke="#181818" stroke-width="2"/>
<path d="M187.929 -238.929L580.373 153.515" stroke="#181818" stroke-width="2"/>
<path d="M180.858 -231.858L573.302 160.586" stroke="#181818" stroke-width="2"/>
<path d="M173.787 -224.787L566.231 167.657" stroke="#181818" stroke-width="2"/>
<path d="M166.716 -217.716L559.16 174.729" stroke="#181818" stroke-width="2"/>
<path d="M159.645 -210.645L552.089 181.8" stroke="#181818" stroke-width="2"/>
<path d="M152.574 -203.574L545.018 188.871" stroke="#181818" stroke-width="2"/>
<path d="M145.503 -196.503L537.947 195.942" stroke="#181818" stroke-width="2"/>
<path d="M138.431 -189.431L530.876 203.013" stroke="#181818" stroke-width="2"/>
<path d="M131.36 -182.36L523.805 210.084" stroke="#181818" stroke-width="2"/>
<path d="M124.289 -175.289L516.734 217.155" stroke="#181818" stroke-width="2"/>
<path d="M117.218 -168.218L509.663 224.226" stroke="#181818" stroke-width="2"/>
<path d="M110.147 -161.147L502.591 231.297" stroke="#181818" stroke-width="2"/>
<path d="M103.076 -154.076L495.52 238.368" stroke="#181818" stroke-width="2"/>
<path d="M96.0051 -147.005L488.449 245.439" stroke="#181818" stroke-width="2"/>
<path d="M88.934 -139.934L481.378 252.51" stroke="#181818" stroke-width="2"/>
<path d="M81.8629 -132.863L474.307 259.581" stroke="#181818" stroke-width="2"/>
<path d="M74.7919 -125.792L467.236 266.652" stroke="#181818" stroke-width="2"/>
<path d="M67.7208 -118.721L460.165 273.724" stroke="#181818" stroke-width="2"/>
<path d="M60.6497 -111.65L453.094 280.795" stroke="#181818" stroke-width="2"/>
<path d="M53.5786 -104.579L446.023 287.866" stroke="#181818" stroke-width="2"/>
<path d="M46.5076 -97.5076L438.952 294.937" stroke="#181818" stroke-width="2"/>
<path d="M39.4365 -90.4365L431.881 302.008" stroke="#181818" stroke-width="2"/>
<path d="M32.3654 -83.3654L424.81 309.079" stroke="#181818" stroke-width="2"/>
<path d="M25.2944 -76.2944L417.739 316.15" stroke="#181818" stroke-width="2"/>
<path d="M18.2233 -69.2233L410.668 323.221" stroke="#181818" stroke-width="2"/>
<path d="M11.1522 -62.1522L403.597 330.292" stroke="#181818" stroke-width="2"/>
<path d="M4.08117 -55.0812L396.525 337.363" stroke="#181818" stroke-width="2"/>
<path d="M-2.9899 -48.0101L389.454 344.434" stroke="#181818" stroke-width="2"/>
<path d="M-10.061 -40.939L382.383 351.505" stroke="#181818" stroke-width="2"/>
<path d="M-17.132 -33.868L375.312 358.576" stroke="#181818" stroke-width="2"/>
<path d="M-24.2031 -26.7969L368.241 365.647" stroke="#181818" stroke-width="2"/>
<path d="M-31.2742 -19.7258L361.17 372.718" stroke="#181818" stroke-width="2"/>
<path d="M-38.3452 -12.6548L354.099 379.79" stroke="#181818" stroke-width="2"/>
<path d="M-45.4163 -5.58371L347.028 386.861" stroke="#181818" stroke-width="2"/>
<path d="M-52.4874 1.48737L339.957 393.932" stroke="#181818" stroke-width="2"/>
<path d="M-59.5584 8.55844L332.886 401.003" stroke="#181818" stroke-width="2"/>
<path d="M-66.6295 15.6295L325.815 408.074" stroke="#181818" stroke-width="2"/>
<path d="M-73.7006 22.7006L318.744 415.145" stroke="#181818" stroke-width="2"/>
<path d="M-80.7716 29.7716L311.673 422.216" stroke="#181818" stroke-width="2"/>
<path d="M-87.8427 36.8427L304.602 429.287" stroke="#181818" stroke-width="2"/>
<path d="M-94.9138 43.9138L297.53 436.358" stroke="#181818" stroke-width="2"/>
<path d="M-101.985 50.9848L290.459 443.429" stroke="#181818" stroke-width="2"/>
<path d="M-109.056 58.0559L283.388 450.5" stroke="#181818" stroke-width="2"/>
<path d="M-116.127 65.127L276.317 457.571" stroke="#181818" stroke-width="2"/>
<path d="M-123.198 72.1981L269.246 464.642" stroke="#181818" stroke-width="2"/>
<path d="M-130.269 79.2691L262.175 471.713" stroke="#181818" stroke-width="2"/>
<path d="M-137.34 86.3402L255.104 478.784" stroke="#181818" stroke-width="2"/>
<path d="M-144.411 93.4113L248.033 485.856" stroke="#181818" stroke-width="2"/>
<path d="M-151.482 100.482L240.962 492.927" stroke="#181818" stroke-width="2"/>
<path d="M-158.553 107.553L233.891 499.998" stroke="#181818" stroke-width="2"/>
<path d="M-165.624 114.624L226.82 507.069" stroke="#181818" stroke-width="2"/>
<path d="M-172.696 121.696L219.749 514.14" stroke="#181818" stroke-width="2"/>
<path d="M-179.767 128.767L212.678 521.211" stroke="#181818" stroke-width="2"/>
<path d="M-186.838 135.838L205.607 528.282" stroke="#181818" stroke-width="2"/>
<path d="M-193.909 142.909L198.536 535.353" stroke="#181818" stroke-width="2"/>
<path d="M-200.98 149.98L191.464 542.424" stroke="#181818" stroke-width="2"/>
<path d="M-208.051 157.051L184.393 549.495" stroke="#181818" stroke-width="2"/>
<path d="M-215.122 164.122L177.322 556.566" stroke="#181818" stroke-width="2"/>
<path d="M-222.193 171.193L170.251 563.637" stroke="#181818" stroke-width="2"/>
<path d="M-229.264 178.264L163.18 570.708" stroke="#181818" stroke-width="2"/>
<path d="M-236.335 185.335L156.109 577.779" stroke="#181818" stroke-width="2"/>
<path d="M-243.406 192.406L149.038 584.85" stroke="#181818" stroke-width="2"/>
<path d="M-250.477 199.477L141.967 591.922" stroke="#181818" stroke-width="2"/>
<mask id="mask0" mask-type="alpha" maskUnits="userSpaceOnUse" x="0" y="0" width="306" height="385">
<rect width="306" height="385" fill="#222222"/>
</mask>
<g mask="url(#mask0)">
<mask id="mask1" mask-type="alpha" maskUnits="userSpaceOnUse" x="-13" y="85" width="152" height="98">
<path fill-rule="evenodd" clip-rule="evenodd" d="M56.2089 85C71.7967 85 85.3649 93.6468 92.3787 106.405C95.1968 104.633 98.5324 103.608 102.107 103.608C112.213 103.608 120.405 111.8 120.405 121.905C120.405 123.896 120.087 125.812 119.499 127.606C130.514 131.559 138.392 142.093 138.392 154.468C138.392 170.145 125.749 182.869 110.103 182.999V183H109.861H18.3733H17.2611V182.981C0.477094 182.395 -12.9495 168.604 -12.9495 151.677C-12.9495 135.395 -0.525641 122.014 15.3595 120.498C18.1569 100.439 35.3799 85 56.2089 85Z" fill="#C4C4C4"/>
</mask>
<g mask="url(#mask1)">
<path d="M137.934 -200.934L530.378 191.51" stroke="#181818" stroke-width="6"/>
<path d="M130.863 -193.863L523.307 198.581" stroke="#181818" stroke-width="6"/>
<path d="M123.792 -186.792L516.236 205.652" stroke="#181818" stroke-width="6"/>
<path d="M116.721 -179.721L509.165 212.724" stroke="#181818" stroke-width="6"/>
<path d="M109.65 -172.65L502.094 219.795" stroke="#181818" stroke-width="6"/>
<path d="M102.579 -165.579L495.023 226.866" stroke="#181818" stroke-width="6"/>
<path d="M95.5076 -158.508L487.952 233.937" stroke="#181818" stroke-width="6"/>
<path d="M88.4365 -151.437L480.881 241.008" stroke="#181818" stroke-width="6"/>
<path d="M81.3655 -144.365L473.81 248.079" stroke="#181818" stroke-width="6"/>
<path d="M74.2944 -137.294L466.739 255.15" stroke="#181818" stroke-width="6"/>
<path d="M67.2233 -130.223L459.668 262.221" stroke="#181818" stroke-width="6"/>
<path d="M60.1523 -123.152L452.597 269.292" stroke="#181818" stroke-width="6"/>
<path d="M53.0812 -116.081L445.525 276.363" stroke="#181818" stroke-width="6"/>
<path d="M46.0101 -109.01L438.454 283.434" stroke="#181818" stroke-width="6"/>
<path d="M38.9391 -101.939L431.383 290.505" stroke="#181818" stroke-width="6"/>
<path d="M31.868 -94.868L424.312 297.576" stroke="#181818" stroke-width="6"/>
<path d="M24.7969 -87.7969L417.241 304.647" stroke="#181818" stroke-width="6"/>
<path d="M17.7259 -80.7258L410.17 311.718" stroke="#181818" stroke-width="6"/>
<path d="M10.6548 -73.6548L403.099 318.789" stroke="#181818" stroke-width="6"/>
<path d="M3.58372 -66.5837L396.028 325.861" stroke="#181818" stroke-width="6"/>
<path d="M-3.48734 -59.5126L388.957 332.932" stroke="#181818" stroke-width="6"/>
<path d="M-10.5584 -52.4416L381.886 340.003" stroke="#181818" stroke-width="6"/>
<path d="M-17.6295 -45.3705L374.815 347.074" stroke="#181818" stroke-width="6"/>
<path d="M-24.7005 -38.2994L367.744 354.145" stroke="#181818" stroke-width="6"/>
<path d="M-31.7716 -31.2284L360.673 361.216" stroke="#181818" stroke-width="6"/>
<path d="M-38.8427 -24.1573L353.602 368.287" stroke="#181818" stroke-width="6"/>
<path d="M-45.9137 -17.0862L346.531 375.358" stroke="#181818" stroke-width="6"/>
<path d="M-52.9848 -10.0152L339.459 382.429" stroke="#181818" stroke-width="6"/>
<path d="M-60.0559 -2.94409L332.388 389.5" stroke="#181818" stroke-width="6"/>
<path d="M-67.127 4.12698L325.317 396.571" stroke="#181818" stroke-width="6"/>
<path d="M-74.198 11.1981L318.246 403.642" stroke="#181818" stroke-width="6"/>
<path d="M-81.2691 18.2691L311.175 410.713" stroke="#181818" stroke-width="6"/>
<path d="M-88.3401 25.3402L304.104 417.784" stroke="#181818" stroke-width="6"/>
<path d="M-95.4112 32.4113L297.033 424.856" stroke="#181818" stroke-width="6"/>
<path d="M-102.482 39.4823L289.962 431.927" stroke="#181818" stroke-width="6"/>
<path d="M-109.553 46.5534L282.891 438.998" stroke="#181818" stroke-width="6"/>
<path d="M-116.624 53.6245L275.82 446.069" stroke="#181818" stroke-width="6"/>
<path d="M-123.695 60.6955L268.749 453.14" stroke="#181818" stroke-width="6"/>
<path d="M-130.767 67.7666L261.678 460.211" stroke="#181818" stroke-width="6"/>
<path d="M-137.838 74.8376L254.607 467.282" stroke="#181818" stroke-width="6"/>
<path d="M-144.909 81.9087L247.536 474.353" stroke="#181818" stroke-width="6"/>
<path d="M-151.98 88.9798L240.464 481.424" stroke="#181818" stroke-width="6"/>
<path d="M-159.051 96.0509L233.393 488.495" stroke="#181818" stroke-width="6"/>
<path d="M-166.122 103.122L226.322 495.566" stroke="#181818" stroke-width="6"/>
<path d="M-173.193 110.193L219.251 502.637" stroke="#181818" stroke-width="6"/>
<path d="M-180.264 117.264L212.18 509.708" stroke="#181818" stroke-width="6"/>
<path d="M-187.335 124.335L205.109 516.779" stroke="#181818" stroke-width="6"/>
<path d="M-194.406 131.406L198.038 523.85" stroke="#181818" stroke-width="6"/>
<path d="M-201.477 138.477L190.967 530.922" stroke="#181818" stroke-width="6"/>
</g>
<mask id="mask2" mask-type="alpha" maskUnits="userSpaceOnUse" x="157" y="176" width="247" height="144">
<path fill-rule="evenodd" clip-rule="evenodd" d="M198.795 319.762C198.84 319.762 198.886 319.762 198.931 319.762C198.976 319.762 199.021 319.762 199.066 319.762H361.193C361.238 319.762 361.284 319.762 361.329 319.762C384.486 319.762 403.259 300.989 403.259 277.832C403.259 254.674 384.486 235.901 361.329 235.901C360.337 235.901 359.353 235.935 358.378 236.003C355.242 202.346 326.919 176 292.443 176C270.141 176 250.414 187.024 238.414 203.92C233.718 200.988 228.169 199.295 222.226 199.295C205.317 199.295 191.61 213.002 191.61 229.911C191.61 232.145 191.849 234.323 192.303 236.422C172.295 239.599 157 256.929 157 277.832C157 300.32 174.703 318.673 196.934 319.716V319.762H198.795Z" fill="#393939"/>
</mask>
<g mask="url(#mask2)">
<path d="M90 -151L482.444 241.444" stroke="#181818" stroke-width="6"/>
<path d="M82.9289 -143.929L475.373 248.515" stroke="#181818" stroke-width="6"/>
<path d="M75.8579 -136.858L468.302 255.586" stroke="#181818" stroke-width="6"/>
<path d="M68.7868 -129.787L461.231 262.657" stroke="#181818" stroke-width="6"/>
<path d="M61.7157 -122.716L454.16 269.729" stroke="#181818" stroke-width="6"/>
<path d="M54.6447 -115.645L447.089 276.8" stroke="#181818" stroke-width="6"/>
<path d="M47.5736 -108.574L440.018 283.871" stroke="#181818" stroke-width="6"/>
<path d="M40.5025 -101.503L432.947 290.942" stroke="#181818" stroke-width="6"/>
<path d="M33.4315 -94.4315L425.876 298.013" stroke="#181818" stroke-width="6"/>
<path d="M26.3604 -87.3604L418.805 305.084" stroke="#181818" stroke-width="6"/>
<path d="M19.2893 -80.2893L411.734 312.155" stroke="#181818" stroke-width="6"/>
<path d="M12.2183 -73.2183L404.663 319.226" stroke="#181818" stroke-width="6"/>
<path d="M5.14719 -66.1472L397.591 326.297" stroke="#181818" stroke-width="6"/>
<path d="M-1.92387 -59.0761L390.52 333.368" stroke="#181818" stroke-width="6"/>
<path d="M-8.99495 -52.0051L383.449 340.439" stroke="#181818" stroke-width="6"/>
<path d="M-16.066 -44.934L376.378 347.51" stroke="#181818" stroke-width="6"/>
<path d="M-23.1371 -37.8629L369.307 354.581" stroke="#181818" stroke-width="6"/>
<path d="M-30.2081 -30.7918L362.236 361.652" stroke="#181818" stroke-width="6"/>
<path d="M-37.2792 -23.7208L355.165 368.723" stroke="#181818" stroke-width="6"/>
<path d="M-44.3503 -16.6497L348.094 375.795" stroke="#181818" stroke-width="6"/>
<path d="M-51.4214 -9.57864L341.023 382.866" stroke="#181818" stroke-width="6"/>
<path d="M-58.4924 -2.50757L333.952 389.937" stroke="#181818" stroke-width="6"/>
<path d="M-65.5635 4.56348L326.881 397.008" stroke="#181818" stroke-width="6"/>
<path d="M-72.6346 11.6346L319.81 404.079" stroke="#181818" stroke-width="6"/>
<path d="M-79.7056 18.7056L312.739 411.15" stroke="#181818" stroke-width="6"/>
<path d="M-86.7767 25.7767L305.668 418.221" stroke="#181818" stroke-width="6"/>
<path d="M-93.8478 32.8477L298.597 425.292" stroke="#181818" stroke-width="6"/>
<path d="M-100.919 39.9188L291.525 432.363" stroke="#181818" stroke-width="6"/>
<path d="M-107.99 46.9899L284.454 439.434" stroke="#181818" stroke-width="6"/>
<path d="M-115.061 54.061L277.383 446.505" stroke="#181818" stroke-width="6"/>
<path d="M-122.132 61.132L270.312 453.576" stroke="#181818" stroke-width="6"/>
<path d="M-129.203 68.2031L263.241 460.647" stroke="#181818" stroke-width="6"/>
<path d="M-136.274 75.2742L256.17 467.718" stroke="#181818" stroke-width="6"/>
<path d="M-143.345 82.3452L249.099 474.79" stroke="#181818" stroke-width="6"/>
<path d="M-150.416 89.4163L242.028 481.861" stroke="#181818" stroke-width="6"/>
<path d="M-157.487 96.4874L234.957 488.932" stroke="#181818" stroke-width="6"/>
<path d="M-164.558 103.558L227.886 496.003" stroke="#181818" stroke-width="6"/>
<path d="M-171.63 110.63L220.815 503.074" stroke="#181818" stroke-width="6"/>
<path d="M-178.701 117.701L213.744 510.145" stroke="#181818" stroke-width="6"/>
<path d="M-185.772 124.772L206.673 517.216" stroke="#181818" stroke-width="6"/>
<path d="M-192.843 131.843L199.602 524.287" stroke="#181818" stroke-width="6"/>
<path d="M-199.914 138.914L192.53 531.358" stroke="#181818" stroke-width="6"/>
<path d="M-206.985 145.985L185.459 538.429" stroke="#181818" stroke-width="6"/>
<path d="M-214.056 153.056L178.388 545.5" stroke="#181818" stroke-width="6"/>
<path d="M-221.127 160.127L171.317 552.571" stroke="#181818" stroke-width="6"/>
<path d="M-228.198 167.198L164.246 559.642" stroke="#181818" stroke-width="6"/>
<path d="M-235.269 174.269L157.175 566.713" stroke="#181818" stroke-width="6"/>
</g>
</g>
</g>
<defs>
<clipPath id="clip0">
<rect width="306" height="385" fill="white"/>
</clipPath>
</defs>
</svg>
