<svg width="306" height="385" viewBox="0 0 306 385" fill="none" xmlns="http://www.w3.org/2000/svg">
<g clip-path="url(#clip0)">
<rect width="306" height="385" fill="black"/>
<path d="M195 -246L587.444 146.444" stroke="#181818" stroke-width="2"/>
<path d="M187.929 -238.929L580.373 153.515" stroke="#181818" stroke-width="2"/>
<path d="M180.858 -231.858L573.302 160.586" stroke="#181818" stroke-width="2"/>
<path d="M173.787 -224.787L566.231 167.657" stroke="#181818" stroke-width="2"/>
<path d="M166.716 -217.716L559.16 174.729" stroke="#181818" stroke-width="2"/>
<path d="M159.645 -210.645L552.089 181.8" stroke="#181818" stroke-width="2"/>
<path d="M152.574 -203.574L545.018 188.871" stroke="#181818" stroke-width="2"/>
<path d="M145.503 -196.503L537.947 195.942" stroke="#181818" stroke-width="2"/>
<path d="M138.432 -189.431L530.876 203.013" stroke="#181818" stroke-width="2"/>
<path d="M131.36 -182.36L523.805 210.084" stroke="#181818" stroke-width="2"/>
<path d="M124.289 -175.289L516.734 217.155" stroke="#181818" stroke-width="2"/>
<path d="M117.218 -168.218L509.663 224.226" stroke="#181818" stroke-width="2"/>
<path d="M110.147 -161.147L502.591 231.297" stroke="#181818" stroke-width="2"/>
<path d="M103.076 -154.076L495.52 238.368" stroke="#181818" stroke-width="2"/>
<path d="M96.005 -147.005L488.449 245.439" stroke="#181818" stroke-width="2"/>
<path d="M88.934 -139.934L481.378 252.51" stroke="#181818" stroke-width="2"/>
<path d="M81.8629 -132.863L474.307 259.581" stroke="#181818" stroke-width="2"/>
<path d="M74.7919 -125.792L467.236 266.652" stroke="#181818" stroke-width="2"/>
<path d="M67.7208 -118.721L460.165 273.724" stroke="#181818" stroke-width="2"/>
<path d="M60.6497 -111.65L453.094 280.795" stroke="#181818" stroke-width="2"/>
<path d="M53.5786 -104.579L446.023 287.866" stroke="#181818" stroke-width="2"/>
<path d="M46.5076 -97.5076L438.952 294.937" stroke="#181818" stroke-width="2"/>
<path d="M39.4365 -90.4365L431.881 302.008" stroke="#181818" stroke-width="2"/>
<path d="M32.3655 -83.3654L424.81 309.079" stroke="#181818" stroke-width="2"/>
<path d="M25.2944 -76.2944L417.739 316.15" stroke="#181818" stroke-width="2"/>
<path d="M18.2233 -69.2233L410.668 323.221" stroke="#181818" stroke-width="2"/>
<path d="M11.1522 -62.1522L403.596 330.292" stroke="#181818" stroke-width="2"/>
<path d="M4.08118 -55.0812L396.525 337.363" stroke="#181818" stroke-width="2"/>
<path d="M-2.98987 -48.0101L389.454 344.434" stroke="#181818" stroke-width="2"/>
<path d="M-10.0609 -40.939L382.383 351.505" stroke="#181818" stroke-width="2"/>
<path d="M-17.1321 -33.868L375.312 358.576" stroke="#181818" stroke-width="2"/>
<path d="M-24.2031 -26.7969L368.241 365.647" stroke="#181818" stroke-width="2"/>
<path d="M-31.2742 -19.7258L361.17 372.718" stroke="#181818" stroke-width="2"/>
<path d="M-38.3452 -12.6548L354.099 379.79" stroke="#181818" stroke-width="2"/>
<path d="M-45.4163 -5.58371L347.028 386.861" stroke="#181818" stroke-width="2"/>
<path d="M-52.4874 1.48737L339.957 393.932" stroke="#181818" stroke-width="2"/>
<path d="M-59.5585 8.55844L332.886 401.003" stroke="#181818" stroke-width="2"/>
<path d="M-66.6295 15.6295L325.815 408.074" stroke="#181818" stroke-width="2"/>
<path d="M-73.7006 22.7006L318.744 415.145" stroke="#181818" stroke-width="2"/>
<path d="M-80.7716 29.7716L311.673 422.216" stroke="#181818" stroke-width="2"/>
<path d="M-87.8427 36.8427L304.602 429.287" stroke="#181818" stroke-width="2"/>
<path d="M-94.9138 43.9138L297.53 436.358" stroke="#181818" stroke-width="2"/>
<path d="M-101.985 50.9848L290.459 443.429" stroke="#181818" stroke-width="2"/>
<path d="M-109.056 58.0559L283.388 450.5" stroke="#181818" stroke-width="2"/>
<path d="M-116.127 65.127L276.317 457.571" stroke="#181818" stroke-width="2"/>
<path d="M-123.198 72.1981L269.246 464.642" stroke="#181818" stroke-width="2"/>
<path d="M-130.269 79.2691L262.175 471.713" stroke="#181818" stroke-width="2"/>
<path d="M-137.34 86.3402L255.104 478.784" stroke="#181818" stroke-width="2"/>
<path d="M-144.411 93.4113L248.033 485.856" stroke="#181818" stroke-width="2"/>
<path d="M-151.482 100.482L240.962 492.927" stroke="#181818" stroke-width="2"/>
<path d="M-158.553 107.553L233.891 499.998" stroke="#181818" stroke-width="2"/>
<path d="M-165.625 114.624L226.82 507.069" stroke="#181818" stroke-width="2"/>
<path d="M-172.696 121.696L219.749 514.14" stroke="#181818" stroke-width="2"/>
<path d="M-179.767 128.767L212.678 521.211" stroke="#181818" stroke-width="2"/>
<path d="M-186.838 135.838L205.607 528.282" stroke="#181818" stroke-width="2"/>
<path d="M-193.909 142.909L198.536 535.353" stroke="#181818" stroke-width="2"/>
<path d="M-200.98 149.98L191.465 542.424" stroke="#181818" stroke-width="2"/>
<path d="M-208.051 157.051L184.393 549.495" stroke="#181818" stroke-width="2"/>
<path d="M-215.122 164.122L177.322 556.566" stroke="#181818" stroke-width="2"/>
<path d="M-222.193 171.193L170.251 563.637" stroke="#181818" stroke-width="2"/>
<path d="M-229.264 178.264L163.18 570.708" stroke="#181818" stroke-width="2"/>
<path d="M-236.335 185.335L156.109 577.779" stroke="#181818" stroke-width="2"/>
<path d="M-243.406 192.406L149.038 584.85" stroke="#181818" stroke-width="2"/>
<path d="M-250.477 199.477L141.967 591.922" stroke="#181818" stroke-width="2"/>
<mask id="mask0" mask-type="alpha" maskUnits="userSpaceOnUse" x="55" y="92" width="200" height="200">
<circle cx="155" cy="192" r="100" fill="#F4D771"/>
</mask>
<g mask="url(#mask0)">
<path d="M110.203 -73L437.594 254.39" stroke="#181818" stroke-width="6"/>
<path d="M103.132 -65.9287L430.523 261.462" stroke="#181818" stroke-width="6"/>
<path d="M96.061 -58.8577L423.451 268.533" stroke="#181818" stroke-width="6"/>
<path d="M88.99 -51.7866L416.38 275.604" stroke="#181818" stroke-width="6"/>
<path d="M81.9189 -44.7156L409.309 282.675" stroke="#181818" stroke-width="6"/>
<path d="M74.8479 -37.6445L402.238 289.746" stroke="#181818" stroke-width="6"/>
<path d="M67.7769 -30.5735L395.167 296.817" stroke="#181818" stroke-width="6"/>
<path d="M60.7058 -23.5024L388.096 303.888" stroke="#181818" stroke-width="6"/>
<path d="M53.6348 -16.4314L381.025 310.959" stroke="#181818" stroke-width="6"/>
<path d="M46.5637 -9.36035L373.954 318.03" stroke="#181818" stroke-width="6"/>
<path d="M39.4924 -2.28931L366.883 325.101" stroke="#181818" stroke-width="6"/>
<path d="M32.4214 4.78174L359.812 332.172" stroke="#181818" stroke-width="6"/>
<path d="M25.3503 11.853L352.741 339.243" stroke="#181818" stroke-width="6"/>
<path d="M18.2793 18.9241L345.67 346.315" stroke="#181818" stroke-width="6"/>
<path d="M11.2083 25.9951L338.599 353.386" stroke="#181818" stroke-width="6"/>
<path d="M4.13721 33.0662L331.528 360.457" stroke="#181818" stroke-width="6"/>
<path d="M-2.93384 40.1372L324.457 367.528" stroke="#181818" stroke-width="6"/>
<path d="M-10.0049 47.2083L317.386 374.599" stroke="#181818" stroke-width="6"/>
<path d="M-17.0759 54.2793L310.315 381.67" stroke="#181818" stroke-width="6"/>
<path d="M-24.147 61.3503L303.243 388.741" stroke="#181818" stroke-width="6"/>
<path d="M-31.2183 68.4214L296.172 395.812" stroke="#181818" stroke-width="6"/>
<path d="M-38.2893 75.4924L289.101 402.883" stroke="#181818" stroke-width="6"/>
<path d="M-45.3604 82.5635L282.03 409.954" stroke="#181818" stroke-width="6"/>
<path d="M-52.4314 89.6348L274.959 417.025" stroke="#181818" stroke-width="6"/>
<path d="M-59.5024 96.7058L267.888 424.096" stroke="#181818" stroke-width="6"/>
<path d="M-66.5735 103.777L260.817 431.167" stroke="#181818" stroke-width="6"/>
<path d="M-73.6445 110.848L253.746 438.238" stroke="#181818" stroke-width="6"/>
<path d="M-80.7156 117.919L246.675 445.309" stroke="#181818" stroke-width="6"/>
<path d="M-87.7866 124.99L239.604 452.38" stroke="#181818" stroke-width="6"/>
<path d="M-94.8577 132.061L232.533 459.451" stroke="#181818" stroke-width="6"/>
<path d="M-101.929 139.132L225.462 466.523" stroke="#181818" stroke-width="6"/>
<path d="M-109 146.203L218.39 473.594" stroke="#181818" stroke-width="6"/>
</g>
</g>
<defs>
<clipPath id="clip0">
<path d="M0 0H306V385H0V0Z" fill="white"/>
</clipPath>
</defs>
</svg>
