<svg width="306" height="385" viewBox="0 0 306 385" fill="none" xmlns="http://www.w3.org/2000/svg">
<g clip-path="url(#clip0)">
<rect width="306" height="385" fill="white"/>
<path d="M195.639 -246L589.37 146.444" stroke="#181818" stroke-width="2"/>
<path d="M188.545 -238.929L582.276 153.515" stroke="#181818" stroke-width="2"/>
<path d="M181.451 -231.858L575.182 160.586" stroke="#181818" stroke-width="2"/>
<path d="M174.357 -224.787L568.088 167.657" stroke="#181818" stroke-width="2"/>
<path d="M167.262 -217.716L560.993 174.729" stroke="#181818" stroke-width="2"/>
<path d="M160.168 -210.645L553.899 181.8" stroke="#181818" stroke-width="2"/>
<path d="M153.074 -203.574L546.805 188.871" stroke="#181818" stroke-width="2"/>
<path d="M145.98 -196.503L539.711 195.942" stroke="#181818" stroke-width="2"/>
<path d="M138.885 -189.431L532.616 203.013" stroke="#181818" stroke-width="2"/>
<path d="M131.791 -182.36L525.522 210.084" stroke="#181818" stroke-width="2"/>
<path d="M124.697 -175.289L518.428 217.155" stroke="#181818" stroke-width="2"/>
<path d="M117.603 -168.218L511.333 224.226" stroke="#181818" stroke-width="2"/>
<path d="M110.508 -161.147L504.239 231.297" stroke="#181818" stroke-width="2"/>
<path d="M103.414 -154.076L497.145 238.368" stroke="#181818" stroke-width="2"/>
<path d="M96.3198 -147.005L490.051 245.439" stroke="#181818" stroke-width="2"/>
<path d="M89.2256 -139.934L482.957 252.51" stroke="#181818" stroke-width="2"/>
<path d="M82.1313 -132.863L475.862 259.581" stroke="#181818" stroke-width="2"/>
<path d="M75.037 -125.792L468.768 266.652" stroke="#181818" stroke-width="2"/>
<path d="M67.9428 -118.721L461.674 273.723" stroke="#181818" stroke-width="2"/>
<path d="M60.8486 -111.65L454.579 280.795" stroke="#181818" stroke-width="2"/>
<path d="M53.7543 -104.579L447.485 287.866" stroke="#181818" stroke-width="2"/>
<path d="M46.66 -97.5076L440.391 294.937" stroke="#181818" stroke-width="2"/>
<path d="M39.5658 -90.4365L433.297 302.008" stroke="#181818" stroke-width="2"/>
<path d="M32.4716 -83.3654L426.203 309.079" stroke="#181818" stroke-width="2"/>
<path d="M25.3773 -76.2944L419.108 316.15" stroke="#181818" stroke-width="2"/>
<path d="M18.283 -69.2233L412.014 323.221" stroke="#181818" stroke-width="2"/>
<path d="M11.1888 -62.1522L404.92 330.292" stroke="#181818" stroke-width="2"/>
<path d="M4.09454 -55.0812L397.826 337.363" stroke="#181818" stroke-width="2"/>
<path d="M-2.99969 -48.0101L390.731 344.434" stroke="#181818" stroke-width="2"/>
<path d="M-10.0939 -40.9391L383.637 351.505" stroke="#181818" stroke-width="2"/>
<path d="M-17.1882 -33.868L376.543 358.576" stroke="#181818" stroke-width="2"/>
<path d="M-24.2825 -26.7969L369.448 365.647" stroke="#181818" stroke-width="2"/>
<path d="M-31.3767 -19.7258L362.354 372.718" stroke="#181818" stroke-width="2"/>
<path d="M-38.4709 -12.6548L355.26 379.789" stroke="#181818" stroke-width="2"/>
<path d="M-45.5652 -5.58368L348.166 386.861" stroke="#181818" stroke-width="2"/>
<path d="M-52.6595 1.48737L341.071 393.932" stroke="#181818" stroke-width="2"/>
<path d="M-59.7537 8.55841L333.977 401.003" stroke="#181818" stroke-width="2"/>
<path d="M-66.848 15.6295L326.883 408.074" stroke="#181818" stroke-width="2"/>
<path d="M-73.9422 22.7006L319.789 415.145" stroke="#181818" stroke-width="2"/>
<path d="M-81.0365 29.7717L312.694 422.216" stroke="#181818" stroke-width="2"/>
<path d="M-88.1307 36.8427L305.6 429.287" stroke="#181818" stroke-width="2"/>
<path d="M-95.225 43.9138L298.506 436.358" stroke="#181818" stroke-width="2"/>
<path d="M-102.319 50.9849L291.412 443.429" stroke="#181818" stroke-width="2"/>
<path d="M-109.413 58.0559L284.318 450.5" stroke="#181818" stroke-width="2"/>
<path d="M-116.508 65.127L277.223 457.571" stroke="#181818" stroke-width="2"/>
<path d="M-123.602 72.1981L270.129 464.642" stroke="#181818" stroke-width="2"/>
<path d="M-130.696 79.2691L263.035 471.713" stroke="#181818" stroke-width="2"/>
<path d="M-137.791 86.3402L255.94 478.784" stroke="#181818" stroke-width="2"/>
<path d="M-144.885 93.4113L248.846 485.856" stroke="#181818" stroke-width="2"/>
<path d="M-151.979 100.482L241.752 492.927" stroke="#181818" stroke-width="2"/>
<path d="M-159.073 107.553L234.658 499.998" stroke="#181818" stroke-width="2"/>
<path d="M-166.167 114.624L227.563 507.069" stroke="#181818" stroke-width="2"/>
<path d="M-173.262 121.695L220.469 514.14" stroke="#181818" stroke-width="2"/>
<path d="M-180.356 128.767L213.375 521.211" stroke="#181818" stroke-width="2"/>
<path d="M-187.45 135.838L206.281 528.282" stroke="#181818" stroke-width="2"/>
<path d="M-194.545 142.909L199.186 535.353" stroke="#181818" stroke-width="2"/>
<path d="M-201.639 149.98L192.092 542.424" stroke="#181818" stroke-width="2"/>
<path d="M-208.733 157.051L184.998 549.495" stroke="#181818" stroke-width="2"/>
<path d="M-215.827 164.122L177.904 556.566" stroke="#181818" stroke-width="2"/>
<path d="M-222.922 171.193L170.809 563.637" stroke="#181818" stroke-width="2"/>
<path d="M-230.016 178.264L163.715 570.708" stroke="#181818" stroke-width="2"/>
<path d="M-237.11 185.335L156.621 577.779" stroke="#181818" stroke-width="2"/>
<path d="M-244.204 192.406L149.527 584.85" stroke="#181818" stroke-width="2"/>
<path d="M-251.298 199.477L142.432 591.922" stroke="#181818" stroke-width="2"/>
<mask id="mask0" mask-type="alpha" maskUnits="userSpaceOnUse" x="93" y="79" width="174" height="173">
<ellipse cx="180.043" cy="165.5" rx="86.7836" ry="86.5" fill="#4B4B4B"/>
</mask>
<g mask="url(#mask0)">
<path d="M167.705 -129L496.169 198.39" stroke="#181818" stroke-width="6"/>
<path d="M160.611 -121.929L489.075 205.462" stroke="#181818" stroke-width="6"/>
<path d="M153.517 -114.858L481.981 212.533" stroke="#181818" stroke-width="6"/>
<path d="M146.423 -107.787L474.887 219.604" stroke="#181818" stroke-width="6"/>
<path d="M139.328 -100.716L467.792 226.675" stroke="#181818" stroke-width="6"/>
<path d="M132.234 -93.6445L460.698 233.746" stroke="#181818" stroke-width="6"/>
<path d="M125.14 -86.5735L453.604 240.817" stroke="#181818" stroke-width="6"/>
<path d="M118.046 -79.5024L446.51 247.888" stroke="#181818" stroke-width="6"/>
<path d="M110.952 -72.4314L439.416 254.959" stroke="#181818" stroke-width="6"/>
<path d="M103.857 -65.3604L432.321 262.03" stroke="#181818" stroke-width="6"/>
<path d="M96.7629 -58.2893L425.227 269.101" stroke="#181818" stroke-width="6"/>
<path d="M89.6687 -51.2183L418.133 276.172" stroke="#181818" stroke-width="6"/>
<path d="M82.5745 -44.147L411.038 283.243" stroke="#181818" stroke-width="6"/>
<path d="M75.4802 -37.0759L403.944 290.315" stroke="#181818" stroke-width="6"/>
<path d="M68.386 -30.0049L396.85 297.386" stroke="#181818" stroke-width="6"/>
<path d="M61.2917 -22.9338L389.756 304.457" stroke="#181818" stroke-width="6"/>
<path d="M54.1975 -15.8628L382.661 311.528" stroke="#181818" stroke-width="6"/>
<path d="M47.1033 -8.79175L375.567 318.599" stroke="#181818" stroke-width="6"/>
<path d="M40.0091 -1.7207L368.473 325.67" stroke="#181818" stroke-width="6"/>
<path d="M32.9149 5.35034L361.379 332.741" stroke="#181818" stroke-width="6"/>
<path d="M25.8204 12.4214L354.284 339.812" stroke="#181818" stroke-width="6"/>
<path d="M18.7261 19.4924L347.19 346.883" stroke="#181818" stroke-width="6"/>
<path d="M11.6319 26.5635L340.096 353.954" stroke="#181818" stroke-width="6"/>
<path d="M4.53772 33.6348L333.002 361.025" stroke="#181818" stroke-width="6"/>
<path d="M-2.55652 40.7058L325.907 368.096" stroke="#181818" stroke-width="6"/>
<path d="M-9.65076 47.7769L318.813 375.167" stroke="#181818" stroke-width="6"/>
<path d="M-16.745 54.8479L311.719 382.238" stroke="#181818" stroke-width="6"/>
<path d="M-23.8392 61.9189L304.625 389.309" stroke="#181818" stroke-width="6"/>
<path d="M-30.9335 68.99L297.53 396.38" stroke="#181818" stroke-width="6"/>
<path d="M-38.0277 76.061L290.436 403.451" stroke="#181818" stroke-width="6"/>
<path d="M-45.1219 83.1321L283.342 410.523" stroke="#181818" stroke-width="6"/>
<path d="M-52.2164 90.2031L276.247 417.594" stroke="#181818" stroke-width="6"/>
</g>
<mask id="mask1" mask-type="alpha" maskUnits="userSpaceOnUse" x="38" y="168" width="209" height="121">
<path fill-rule="evenodd" clip-rule="evenodd" d="M73.3707 289C73.4091 289 73.4475 289 73.486 289C73.5244 289 73.5628 289 73.6013 289H210.504C210.542 289 210.581 289 210.619 289C230.174 289 246.027 273.199 246.027 253.708C246.027 234.217 230.174 218.417 210.619 218.417C209.782 218.417 208.951 218.446 208.128 218.503C205.48 190.174 181.563 168 152.45 168C133.618 168 116.96 177.278 106.827 191.499C102.861 189.032 98.1759 187.606 93.1568 187.606C78.8786 187.606 67.3038 199.143 67.3038 213.375C67.3038 215.255 67.5059 217.089 67.8897 218.855C50.9939 221.529 38.0786 236.115 38.0786 253.708C38.0786 272.636 53.0279 288.084 71.7999 288.961V289H73.3707Z" fill="black"/>
</mask>
<g mask="url(#mask1)">
<path d="M186.353 -222.787L580.084 169.657" stroke="#181818" stroke-width="8"/>
<path d="M179.259 -215.716L572.99 176.729" stroke="#181818" stroke-width="8"/>
<path d="M172.165 -208.645L565.896 183.8" stroke="#181818" stroke-width="8"/>
<path d="M165.07 -201.574L558.801 190.871" stroke="#181818" stroke-width="8"/>
<path d="M157.976 -194.503L551.707 197.942" stroke="#181818" stroke-width="8"/>
<path d="M150.882 -187.431L544.613 205.013" stroke="#181818" stroke-width="8"/>
<path d="M143.788 -180.36L537.519 212.084" stroke="#181818" stroke-width="8"/>
<path d="M136.693 -173.289L530.424 219.155" stroke="#181818" stroke-width="8"/>
<path d="M129.599 -166.218L523.33 226.226" stroke="#181818" stroke-width="8"/>
<path d="M122.505 -159.147L516.236 233.297" stroke="#181818" stroke-width="8"/>
<path d="M115.411 -152.076L509.142 240.368" stroke="#181818" stroke-width="8"/>
<path d="M108.316 -145.005L502.047 247.439" stroke="#181818" stroke-width="8"/>
<path d="M101.222 -137.934L494.953 254.51" stroke="#181818" stroke-width="8"/>
<path d="M94.128 -130.863L487.859 261.581" stroke="#181818" stroke-width="8"/>
<path d="M87.0337 -123.792L480.765 268.652" stroke="#181818" stroke-width="8"/>
<path d="M79.9395 -116.721L473.67 275.723" stroke="#181818" stroke-width="8"/>
<path d="M72.8452 -109.65L466.576 282.795" stroke="#181818" stroke-width="8"/>
<path d="M65.751 -102.579L459.482 289.866" stroke="#181818" stroke-width="8"/>
<path d="M58.6567 -95.5076L452.388 296.937" stroke="#181818" stroke-width="8"/>
<path d="M51.5624 -88.4365L445.293 304.008" stroke="#181818" stroke-width="8"/>
<path d="M44.4682 -81.3654L438.199 311.079" stroke="#181818" stroke-width="8"/>
<path d="M37.374 -74.2944L431.105 318.15" stroke="#181818" stroke-width="8"/>
<path d="M30.2797 -67.2233L424.011 325.221" stroke="#181818" stroke-width="8"/>
<path d="M23.1854 -60.1523L416.916 332.292" stroke="#181818" stroke-width="8"/>
<path d="M16.0912 -53.0812L409.822 339.363" stroke="#181818" stroke-width="8"/>
<path d="M8.99695 -46.0101L402.728 346.434" stroke="#181818" stroke-width="8"/>
<path d="M1.90271 -38.939L395.634 353.505" stroke="#181818" stroke-width="8"/>
<path d="M-5.19159 -31.868L388.539 360.576" stroke="#181818" stroke-width="8"/>
<path d="M-12.2858 -24.7969L381.445 367.647" stroke="#181818" stroke-width="8"/>
<path d="M-19.3801 -17.7258L374.351 374.718" stroke="#181818" stroke-width="8"/>
<path d="M-26.4743 -10.6548L367.257 381.789" stroke="#181818" stroke-width="8"/>
<path d="M-33.5685 -3.58368L360.162 388.861" stroke="#181818" stroke-width="8"/>
<path d="M-40.6628 3.48737L353.068 395.932" stroke="#181818" stroke-width="8"/>
<path d="M-47.7571 10.5585L345.974 403.003" stroke="#181818" stroke-width="8"/>
<path d="M-54.8513 17.6295L338.88 410.074" stroke="#181818" stroke-width="8"/>
<path d="M-61.9456 24.7006L331.785 417.145" stroke="#181818" stroke-width="8"/>
<path d="M-69.0398 31.7717L324.691 424.216" stroke="#181818" stroke-width="8"/>
<path d="M-76.1341 38.8427L317.597 431.287" stroke="#181818" stroke-width="8"/>
<path d="M-83.2283 45.9138L310.503 438.358" stroke="#181818" stroke-width="8"/>
<path d="M-90.3226 52.9849L303.408 445.429" stroke="#181818" stroke-width="8"/>
<path d="M-97.4168 60.0559L296.314 452.5" stroke="#181818" stroke-width="8"/>
<path d="M-104.511 67.127L289.22 459.571" stroke="#181818" stroke-width="8"/>
<path d="M-111.605 74.1981L282.126 466.642" stroke="#181818" stroke-width="8"/>
<path d="M-118.7 81.2691L275.031 473.713" stroke="#181818" stroke-width="8"/>
<path d="M-125.794 88.3402L267.937 480.784" stroke="#181818" stroke-width="8"/>
<path d="M-132.888 95.4113L260.843 487.856" stroke="#181818" stroke-width="8"/>
<path d="M-139.982 102.482L253.749 494.927" stroke="#181818" stroke-width="8"/>
<path d="M-147.077 109.553L246.654 501.998" stroke="#181818" stroke-width="8"/>
<path d="M-154.171 116.624L239.56 509.069" stroke="#181818" stroke-width="8"/>
<path d="M-161.265 123.695L232.466 516.14" stroke="#181818" stroke-width="8"/>
<path d="M-168.359 130.767L225.372 523.211" stroke="#181818" stroke-width="8"/>
<path d="M-175.454 137.838L218.277 530.282" stroke="#181818" stroke-width="8"/>
<path d="M-182.548 144.909L211.183 537.353" stroke="#181818" stroke-width="8"/>
<path d="M-189.642 151.98L204.089 544.424" stroke="#181818" stroke-width="8"/>
<path d="M-196.736 159.051L196.995 551.495" stroke="#181818" stroke-width="8"/>
<path d="M-203.831 166.122L189.9 558.566" stroke="#181818" stroke-width="8"/>
<path d="M-210.925 173.193L182.806 565.637" stroke="#181818" stroke-width="8"/>
<path d="M-218.019 180.264L175.712 572.708" stroke="#181818" stroke-width="8"/>
<path d="M-225.113 187.335L168.618 579.779" stroke="#181818" stroke-width="8"/>
<path d="M-232.208 194.406L161.523 586.85" stroke="#181818" stroke-width="8"/>
<path d="M-239.302 201.477L154.429 593.922" stroke="#181818" stroke-width="8"/>
</g>
</g>
<defs>
<clipPath id="clip0">
<rect width="306" height="385" fill="white"/>
</clipPath>
</defs>
</svg>
