<svg width="306" height="385" viewBox="0 0 306 385" fill="none" xmlns="http://www.w3.org/2000/svg">
<g clip-path="url(#clip0)">
<rect width="306" height="385" fill="black"/>
<path d="M195.639 -246L589.37 146.444" stroke="#181818" stroke-width="2"/>
<path d="M188.545 -238.929L582.276 153.515" stroke="#181818" stroke-width="2"/>
<path d="M181.451 -231.858L575.182 160.586" stroke="#181818" stroke-width="2"/>
<path d="M174.357 -224.787L568.088 167.657" stroke="#181818" stroke-width="2"/>
<path d="M167.262 -217.716L560.993 174.729" stroke="#181818" stroke-width="2"/>
<path d="M160.168 -210.645L553.899 181.8" stroke="#181818" stroke-width="2"/>
<path d="M153.074 -203.574L546.805 188.871" stroke="#181818" stroke-width="2"/>
<path d="M145.98 -196.503L539.711 195.942" stroke="#181818" stroke-width="2"/>
<path d="M138.885 -189.431L532.616 203.013" stroke="#181818" stroke-width="2"/>
<path d="M131.791 -182.36L525.522 210.084" stroke="#181818" stroke-width="2"/>
<path d="M124.697 -175.289L518.428 217.155" stroke="#181818" stroke-width="2"/>
<path d="M117.603 -168.218L511.334 224.226" stroke="#181818" stroke-width="2"/>
<path d="M110.508 -161.147L504.239 231.297" stroke="#181818" stroke-width="2"/>
<path d="M103.414 -154.076L497.145 238.368" stroke="#181818" stroke-width="2"/>
<path d="M96.3198 -147.005L490.051 245.439" stroke="#181818" stroke-width="2"/>
<path d="M89.2256 -139.934L482.957 252.51" stroke="#181818" stroke-width="2"/>
<path d="M82.1313 -132.863L475.862 259.581" stroke="#181818" stroke-width="2"/>
<path d="M75.0371 -125.792L468.768 266.652" stroke="#181818" stroke-width="2"/>
<path d="M67.9429 -118.721L461.674 273.724" stroke="#181818" stroke-width="2"/>
<path d="M60.8486 -111.65L454.58 280.795" stroke="#181818" stroke-width="2"/>
<path d="M53.7544 -104.579L447.485 287.866" stroke="#181818" stroke-width="2"/>
<path d="M46.6602 -97.5076L440.391 294.937" stroke="#181818" stroke-width="2"/>
<path d="M39.5659 -90.4365L433.297 302.008" stroke="#181818" stroke-width="2"/>
<path d="M32.4716 -83.3654L426.203 309.079" stroke="#181818" stroke-width="2"/>
<path d="M25.3773 -76.2944L419.108 316.15" stroke="#181818" stroke-width="2"/>
<path d="M18.2831 -69.2233L412.014 323.221" stroke="#181818" stroke-width="2"/>
<path d="M11.1888 -62.1522L404.92 330.292" stroke="#181818" stroke-width="2"/>
<path d="M4.0946 -55.0812L397.826 337.363" stroke="#181818" stroke-width="2"/>
<path d="M-2.99963 -48.0101L390.731 344.434" stroke="#181818" stroke-width="2"/>
<path d="M-10.0939 -40.939L383.637 351.505" stroke="#181818" stroke-width="2"/>
<path d="M-17.1881 -33.868L376.543 358.576" stroke="#181818" stroke-width="2"/>
<path d="M-24.2825 -26.7969L369.448 365.647" stroke="#181818" stroke-width="2"/>
<path d="M-31.3766 -19.7258L362.354 372.718" stroke="#181818" stroke-width="2"/>
<path d="M-38.4708 -12.6548L355.26 379.79" stroke="#181818" stroke-width="2"/>
<path d="M-45.5651 -5.5837L348.166 386.861" stroke="#181818" stroke-width="2"/>
<path d="M-52.6593 1.48737L341.072 393.932" stroke="#181818" stroke-width="2"/>
<path d="M-59.7537 8.55844L333.977 401.003" stroke="#181818" stroke-width="2"/>
<path d="M-66.8479 15.6295L326.883 408.074" stroke="#181818" stroke-width="2"/>
<path d="M-73.9421 22.7006L319.789 415.145" stroke="#181818" stroke-width="2"/>
<path d="M-81.0364 29.7716L312.695 422.216" stroke="#181818" stroke-width="2"/>
<path d="M-88.1306 36.8427L305.6 429.287" stroke="#181818" stroke-width="2"/>
<path d="M-95.2249 43.9138L298.506 436.358" stroke="#181818" stroke-width="2"/>
<path d="M-102.319 50.9848L291.412 443.429" stroke="#181818" stroke-width="2"/>
<path d="M-109.413 58.0559L284.318 450.5" stroke="#181818" stroke-width="2"/>
<path d="M-116.508 65.127L277.223 457.571" stroke="#181818" stroke-width="2"/>
<path d="M-123.602 72.1981L270.129 464.642" stroke="#181818" stroke-width="2"/>
<path d="M-130.696 79.2691L263.035 471.713" stroke="#181818" stroke-width="2"/>
<path d="M-137.79 86.3402L255.941 478.784" stroke="#181818" stroke-width="2"/>
<path d="M-144.885 93.4113L248.846 485.856" stroke="#181818" stroke-width="2"/>
<path d="M-151.979 100.482L241.752 492.927" stroke="#181818" stroke-width="2"/>
<path d="M-159.073 107.553L234.658 499.998" stroke="#181818" stroke-width="2"/>
<path d="M-166.167 114.624L227.564 507.069" stroke="#181818" stroke-width="2"/>
<path d="M-173.262 121.696L220.469 514.14" stroke="#181818" stroke-width="2"/>
<path d="M-180.356 128.767L213.375 521.211" stroke="#181818" stroke-width="2"/>
<path d="M-187.45 135.838L206.281 528.282" stroke="#181818" stroke-width="2"/>
<path d="M-194.544 142.909L199.187 535.353" stroke="#181818" stroke-width="2"/>
<path d="M-201.639 149.98L192.092 542.424" stroke="#181818" stroke-width="2"/>
<path d="M-208.733 157.051L184.998 549.495" stroke="#181818" stroke-width="2"/>
<path d="M-215.827 164.122L177.904 556.566" stroke="#181818" stroke-width="2"/>
<path d="M-222.921 171.193L170.81 563.637" stroke="#181818" stroke-width="2"/>
<path d="M-230.016 178.264L163.715 570.708" stroke="#181818" stroke-width="2"/>
<path d="M-237.11 185.335L156.621 577.779" stroke="#181818" stroke-width="2"/>
<path d="M-244.204 192.406L149.527 584.851" stroke="#181818" stroke-width="2"/>
<path d="M-251.298 199.477L142.433 591.922" stroke="#181818" stroke-width="2"/>
<mask id="mask0" mask-type="alpha" maskUnits="userSpaceOnUse" x="24" y="27" width="258" height="332">
<path fill-rule="evenodd" clip-rule="evenodd" d="M122 27C104.327 47 90 66.3269 90 79C90 96.6731 104.327 111 122 111C139.673 111 154 96.6731 154 79C154 66.3269 139.673 47 122 27ZM56 87C38.3269 107 24 126.327 24 139C24 156.673 38.3269 171 56 171C73.6731 171 88 156.673 88 139C88 126.327 73.6731 107 56 87ZM122 151C104.327 171 90 190.327 90 203C90 220.673 104.327 235 122 235C139.673 235 154 220.673 154 203C154 190.327 139.673 171 122 151ZM90 327C90 314.327 104.327 295 122 275C139.673 295 154 314.327 154 327C154 344.673 139.673 359 122 359C104.327 359 90 344.673 90 327ZM218 327C218 314.327 232.327 295 250 275C267.673 295 282 314.327 282 327C282 344.673 267.673 359 250 359C232.327 359 218 344.673 218 327ZM250 27C232.327 47 218 66.3269 218 79C218 96.6731 232.327 111 250 111C267.673 111 282 96.6731 282 79C282 66.3269 267.673 47 250 27ZM24 263C24 250.327 38.3269 231 56 211C73.6731 231 88 250.327 88 263C88 280.673 73.6731 295 56 295C38.3269 295 24 280.673 24 263ZM250 151C232.327 171 218 190.327 218 203C218 220.673 232.327 235 250 235C267.673 235 282 220.673 282 203C282 190.327 267.673 171 250 151ZM152 263C152 250.327 166.327 231 184 211C201.673 231 216 250.327 216 263C216 280.673 201.673 295 184 295C166.327 295 152 280.673 152 263ZM184 87C166.327 107 152 126.327 152 139C152 156.673 166.327 171 184 171C201.673 171 216 156.673 216 139C216 126.327 201.673 107 184 87Z" fill="#181818"/>
</mask>
<g mask="url(#mask0)">
<path d="M192.639 -246L586.37 146.444" stroke="#181818" stroke-width="6"/>
<path d="M185.545 -238.929L579.276 153.515" stroke="#181818" stroke-width="6"/>
<path d="M178.451 -231.858L572.182 160.586" stroke="#181818" stroke-width="6"/>
<path d="M171.357 -224.787L565.088 167.657" stroke="#181818" stroke-width="6"/>
<path d="M164.262 -217.716L557.993 174.729" stroke="#181818" stroke-width="6"/>
<path d="M157.168 -210.645L550.899 181.8" stroke="#181818" stroke-width="6"/>
<path d="M150.074 -203.574L543.805 188.871" stroke="#181818" stroke-width="6"/>
<path d="M142.979 -196.503L536.71 195.942" stroke="#181818" stroke-width="6"/>
<path d="M135.885 -189.431L529.616 203.013" stroke="#181818" stroke-width="6"/>
<path d="M128.791 -182.36L522.522 210.084" stroke="#181818" stroke-width="6"/>
<path d="M121.697 -175.289L515.428 217.155" stroke="#181818" stroke-width="6"/>
<path d="M114.603 -168.218L508.333 224.226" stroke="#181818" stroke-width="6"/>
<path d="M107.508 -161.147L501.239 231.297" stroke="#181818" stroke-width="6"/>
<path d="M100.414 -154.076L494.145 238.368" stroke="#181818" stroke-width="6"/>
<path d="M93.3197 -147.005L487.051 245.439" stroke="#181818" stroke-width="6"/>
<path d="M86.2255 -139.934L479.956 252.51" stroke="#181818" stroke-width="6"/>
<path d="M79.1312 -132.863L472.862 259.581" stroke="#181818" stroke-width="6"/>
<path d="M72.037 -125.792L465.768 266.652" stroke="#181818" stroke-width="6"/>
<path d="M64.9427 -118.721L458.674 273.724" stroke="#181818" stroke-width="6"/>
<path d="M57.8485 -111.65L451.579 280.795" stroke="#181818" stroke-width="6"/>
<path d="M50.7543 -104.579L444.485 287.866" stroke="#181818" stroke-width="6"/>
<path d="M43.66 -97.5076L437.391 294.937" stroke="#181818" stroke-width="6"/>
<path d="M36.5658 -90.4365L430.297 302.008" stroke="#181818" stroke-width="6"/>
<path d="M29.4714 -83.3654L423.202 309.079" stroke="#181818" stroke-width="6"/>
<path d="M22.3772 -76.2944L416.108 316.15" stroke="#181818" stroke-width="6"/>
<path d="M15.283 -69.2233L409.014 323.221" stroke="#181818" stroke-width="6"/>
<path d="M8.18872 -62.1522L401.92 330.292" stroke="#181818" stroke-width="6"/>
<path d="M1.09448 -55.0812L394.825 337.363" stroke="#181818" stroke-width="6"/>
<path d="M-5.99976 -48.0101L387.731 344.434" stroke="#181818" stroke-width="6"/>
<path d="M-13.094 -40.939L380.637 351.505" stroke="#181818" stroke-width="6"/>
<path d="M-20.1882 -33.868L373.543 358.576" stroke="#181818" stroke-width="6"/>
<path d="M-27.2826 -26.7969L366.448 365.647" stroke="#181818" stroke-width="6"/>
<path d="M-34.3768 -19.7258L359.354 372.718" stroke="#181818" stroke-width="6"/>
<path d="M-41.4711 -12.6548L352.26 379.789" stroke="#181818" stroke-width="6"/>
<path d="M-48.5653 -5.5837L345.166 386.861" stroke="#181818" stroke-width="6"/>
<path d="M-55.6595 1.48736L338.071 393.932" stroke="#181818" stroke-width="6"/>
<path d="M-62.7539 8.55843L330.977 401.003" stroke="#181818" stroke-width="6"/>
<path d="M-69.8481 15.6295L323.883 408.074" stroke="#181818" stroke-width="6"/>
<path d="M-76.9424 22.7006L316.789 415.145" stroke="#181818" stroke-width="6"/>
<path d="M-84.0366 29.7716L309.694 422.216" stroke="#181818" stroke-width="6"/>
<path d="M-91.1309 36.8427L302.6 429.287" stroke="#181818" stroke-width="6"/>
<path d="M-98.2251 43.9138L295.506 436.358" stroke="#181818" stroke-width="6"/>
<path d="M-105.319 50.9848L288.412 443.429" stroke="#181818" stroke-width="6"/>
<path d="M-112.414 58.0559L281.317 450.5" stroke="#181818" stroke-width="6"/>
<path d="M-119.508 65.127L274.223 457.571" stroke="#181818" stroke-width="6"/>
<path d="M-126.602 72.198L267.129 464.642" stroke="#181818" stroke-width="6"/>
<path d="M-133.696 79.2691L260.035 471.713" stroke="#181818" stroke-width="6"/>
<path d="M-140.791 86.3402L252.94 478.784" stroke="#181818" stroke-width="6"/>
<path d="M-147.885 93.4112L245.846 485.856" stroke="#181818" stroke-width="6"/>
<path d="M-154.979 100.482L238.752 492.927" stroke="#181818" stroke-width="6"/>
<path d="M-162.073 107.553L231.658 499.998" stroke="#181818" stroke-width="6"/>
<path d="M-169.168 114.624L224.563 507.069" stroke="#181818" stroke-width="6"/>
<path d="M-176.262 121.696L217.469 514.14" stroke="#181818" stroke-width="6"/>
<path d="M-183.356 128.767L210.375 521.211" stroke="#181818" stroke-width="6"/>
<path d="M-190.45 135.838L203.281 528.282" stroke="#181818" stroke-width="6"/>
<path d="M-197.545 142.909L196.186 535.353" stroke="#181818" stroke-width="6"/>
<path d="M-204.639 149.98L189.092 542.424" stroke="#181818" stroke-width="6"/>
<path d="M-211.733 157.051L181.998 549.495" stroke="#181818" stroke-width="6"/>
<path d="M-218.827 164.122L174.904 556.566" stroke="#181818" stroke-width="6"/>
<path d="M-225.922 171.193L167.809 563.637" stroke="#181818" stroke-width="6"/>
<path d="M-233.016 178.264L160.715 570.708" stroke="#181818" stroke-width="6"/>
<path d="M-240.11 185.335L153.621 577.779" stroke="#181818" stroke-width="6"/>
<path d="M-247.204 192.406L146.527 584.851" stroke="#181818" stroke-width="6"/>
<path d="M-254.299 199.477L139.432 591.922" stroke="#181818" stroke-width="6"/>
</g>
</g>
<defs>
<clipPath id="clip0">
<rect width="306" height="385" fill="white"/>
</clipPath>
</defs>
</svg>
